<?xml version="1.0" encoding="UTF-8" standalone="no"?>
<svg
   xmlns:dc="http://purl.org/dc/elements/1.1/"
   xmlns:cc="http://creativecommons.org/ns#"
   xmlns:rdf="http://www.w3.org/1999/02/22-rdf-syntax-ns#"
   xmlns:svg="http://www.w3.org/2000/svg"
   xmlns="http://www.w3.org/2000/svg"
   xmlns:sodipodi="http://sodipodi.sourceforge.net/DTD/sodipodi-0.dtd"
   xmlns:inkscape="http://www.inkscape.org/namespaces/inkscape"
   version="1.1"
   id="svg6086"
   width="1116"
   height="433"
   viewBox="0 0 1116 433"
   sodipodi:docname="invitation-background.svg"
   inkscape:version="1.0.1 (c497b03c, 2020-09-10)">
  <metadata
     id="metadata6092">
    <rdf:RDF>
      <cc:Work
         rdf:about="">
        <dc:format>image/svg+xml</dc:format>
        <dc:type
           rdf:resource="http://purl.org/dc/dcmitype/StillImage" />
        <dc:title></dc:title>
      </cc:Work>
    </rdf:RDF>
  </metadata>
  <defs
     id="defs6090" />
  <sodipodi:namedview
     pagecolor="#ffffff"
     bordercolor="#666666"
     borderopacity="1"
     objecttolerance="10"
     gridtolerance="10"
     guidetolerance="10"
     inkscape:pageopacity="0"
     inkscape:pageshadow="2"
     inkscape:window-width="1792"
     inkscape:window-height="1092"
     id="namedview6088"
     showgrid="false"
     inkscape:zoom="1.0573477"
     inkscape:cx="558"
     inkscape:cy="216.5"
     inkscape:window-x="0"
     inkscape:window-y="28"
     inkscape:window-maximized="0"
     inkscape:current-layer="g6094" />
  <g
     inkscape:groupmode="layer"
     inkscape:label="Image"
     id="g6094">
    <g
       id="g6786"
       transform="translate(1208.59,952.43835)">
      <path
         style="fill:#7c82fc"
         d="m -1208.59,-735.93835 v -216.5 h 558 558 v 45.3 c 0,33.9 -0.302,45.60198 -1.2,46.5 -0.9333,0.93333 -0.9333,1.46666 0,2.4 0.9239,0.92385 1.2,40.04444 1.2,170 v 168.8 h -2.375 c -1.8389,0 -2.5104,-0.67719 -2.975,-3 -0.7713,-3.85625 -2.5287,-3.85625 -3.3,0 l -0.6,3 h -553.375 -553.375 z m 976,191.86163 c 0,-1.88313 -2.844,-2.91764 -4.2248,-1.53679 -0.7872,0.7872 -0.7482,1.50275 0.1403,2.57334 1.4285,1.72126 4.0845,1.04724 4.0845,-1.03655 z m -252,-10.36163 c 0,-1.33333 -0.6667,-2 -2,-2 -1.3333,0 -2,0.66667 -2,2 0,1.33333 0.6667,2 2,2 1.3333,0 2,-0.66667 2,-2 z m -225.3229,-1.60092 c 0.8525,-2.22164 -1.8107,-3.69307 -3.5454,-1.95888 -0.7526,0.75233 -1.0636,1.86106 -0.691,2.46384 1.006,1.62779 3.5336,1.32652 4.2364,-0.50496 z m -334.6771,-6.89908 c 0,-0.63325 -1.048,-2.13587 -2.3288,-3.33915 l -2.3288,-2.18779 -2.8694,2.46566 -2.8695,2.46566 1.9482,2.29781 c 1.0716,1.2638 2.3913,2.6146 2.9328,3.00178 1.1185,0.7997 5.5155,-2.95041 5.5155,-4.70397 z m 170,-45.05902 c 0,-0.85746 -0.45,-1.2809 -1,-0.94098 -0.55,0.33992 -1,1.04148 -1,1.55902 0,0.51754 0.45,0.94098 1,0.94098 0.55,0 1,-0.70156 1,-1.55902 z m 706.9894,-26.92825 c 2.7965,-3.36956 -1.7431,-6.95063 -5.0347,-3.9717 -1.8442,1.66899 -1.864,1.90169 -0.3078,3.62128 2.0139,2.22537 3.695,2.33563 5.3425,0.35042 z m -632.5064,-29.49397 c 1.4673,-1.62137 1.5641,-2.25711 0.5326,-3.5 -0.6933,-0.83532 -2.0503,-1.51876 -3.0156,-1.51876 -0.9653,0 -2.3223,0.68344 -3.0156,1.51876 -1.0315,1.24289 -0.9348,1.87863 0.5326,3.5 0.9861,1.08968 2.1035,1.98124 2.483,1.98124 0.3795,0 1.4969,-0.89156 2.483,-1.98124 z m 184.0489,-15.05405 c 1.7945,-1.98287 1.7856,-2.09163 -0.345,-4.22223 l -2.1869,-2.18692 -2.1869,2.18692 c -2.1306,2.1306 -2.1395,2.23936 -0.345,4.22223 1.013,1.11941 2.1524,2.03529 2.5319,2.03529 0.3795,0 1.5189,-0.91588 2.5319,-2.03529 z m 339.4681,-30.96471 c 0,-0.55 -0.45,-1 -1,-1 -0.55,0 -1,0.45 -1,1 0,0.55 0.45,1 1,1 0.55,0 1,-0.45 1,-1 z m -218.1917,-26.075 c -0.1971,-0.59125 -0.7858,-1.075 -1.3083,-1.075 -0.5225,0 -1.1113,0.48375 -1.3083,1.075 -0.1971,0.59125 0.3916,1.075 1.3083,1.075 0.9167,0 1.5054,-0.48375 1.3083,-1.075 z m -195.8083,-43.425 c 0,-0.825 -0.45,-1.5 -1,-1.5 -0.55,0 -1,0.675 -1,1.5 0,0.825 0.45,1.5 1,1.5 0.55,0 1,-0.675 1,-1.5 z m -341.5388,-63.01386 4.5139,-4.51386 -4.1355,-3.73614 c -2.2745,-2.05488 -4.4523,-3.73614 -4.8396,-3.73614 -0.3873,0 -2.5658,1.6819 -4.8412,3.73757 l -4.137,3.73757 4.2391,4.41823 c 2.3315,2.43002 4.3398,4.46062 4.4628,4.51243 0.123,0.0518 2.2549,-1.93704 4.7375,-4.41966 z m 402.0707,-45.52144 c 1.7945,-1.98286 1.7856,-2.09163 -0.345,-4.22222 l -2.1869,-2.18693 -2.1869,2.18693 c -2.1306,2.13059 -2.1395,2.23936 -0.345,4.22222 1.013,1.11942 2.1524,2.0353 2.5319,2.0353 0.3795,0 1.5189,-0.91588 2.5319,-2.0353 z m 385.8761,-10.4647 c 1.5175,-2.31587 1.5175,-2.68413 0,-5 -2.0602,-3.14427 -2.7966,-3.13732 -4.2443,0.04 -0.9368,2.05603 -0.8502,3.0088 0.4545,5 0.8865,1.35297 1.7333,2.45995 1.8818,2.45995 0.1485,0 1.0071,-1.125 1.908,-2.5 z M -904.59,-932.8608 c 0,-0.64765 -0.5339,-1.71141 -1.1864,-2.3639 -0.9151,-0.91513 -1.6028,-0.80944 -3.008,0.46232 -1.7008,1.53912 -1.7115,1.77051 -0.1619,3.48281 1.2616,1.39411 1.9833,1.56571 3.0081,0.71524 0.7415,-0.6154 1.3482,-1.64881 1.3482,-2.29647 z"
         id="path6693" />
      <path
         style="fill:#727afe"
         d="m -1208.59,-735.93745 v -216.5009 h 558.00009 558.000003 v 44.51357 c 0,33.69578 -0.3015,44.99632 -1.2405,46.5 -0.9874,1.58107 -0.9874,2.39179 0,3.97286 0.9745,1.56058 1.2405,38.02033 1.2405,170.06955 v 168.08314 l -2.1409,-0.3196 c -1.622603,-0.2422 -2.231403,-1.1584 -2.515103,-3.7846 -0.7136,-6.6066 -4.3028,-6.5142 -4.825,0.1242 l -0.2629,3.3409 -553.12803,0.2509 -553.12816,0.2509 z m 976.81077,191.18142 c -0.45377,-3.1874 -5.37612,-3.6269 -6.34739,-0.5666 -0.49861,1.5709 -0.18697,2.6132 1.0523,3.5193 2.44819,1.7902 5.71126,-0.029 5.29509,-2.9527 z m -251.44905,-8.1823 c 1.29558,-3.3763 -2.34792,-6.5862 -4.98838,-4.3948 -1.44497,1.1992 -1.83674,4.098 -0.70658,5.2281 1.2422,1.2422 5.11602,0.6754 5.69496,-0.8333 z m -225.6711,-2.1359 c 0.82725,-2.1558 -0.94923,-4.8641 -3.19053,-4.8641 -0.98011,0 -2.24019,0.7263 -2.80016,1.6141 -1.52773,2.4219 -0.1156,4.8859 2.80016,4.8859 1.45016,0 2.83531,-0.7102 3.19053,-1.6359 z m -336.61362,-4.2872 c 1.6077,-1.6077 2.923,-3.3265 2.923,-3.8197 0,-0.8819 -3.345,-4.1164 -5.8728,-5.6786 -1.3412,-0.829 -7.1272,3.8826 -7.1272,5.8038 0,1.2665 5.0652,6.6176 6.2641,6.6176 0.4894,0 2.2052,-1.3154 3.8129,-2.9231 z m 171.74641,-48.40979 c 0.21801,-1.12408 -0.35203,-1.66713 -1.75,-1.66713 -1.14032,0 -2.07332,0.6 -2.07332,1.33333 0,3.06275 3.23923,3.34555 3.82332,0.3338 z m 706.34798,-26.32212 c 2.3657,-2.14096 2.3088,-3.60052 -0.2298,-5.89798 -2.2048,-1.99533 -4.3116,-1.39275 -6.3326,1.81126 -0.765,1.21275 -0.5525,2.14653 0.8381,3.68317 2.2545,2.49113 3.3335,2.5672 5.7243,0.40355 z M -1111.59,-659.93835 c 0,-0.825 -0.675,-1.5 -1.5,-1.5 -0.825,0 -1.5,0.675 -1.5,1.5 0,0.825 0.675,1.5 1.5,1.5 0.825,0 1.5,-0.675 1.5,-1.5 z m 311.99025,-3.98952 c 2.27063,-2.41698 2.28576,-2.54811 0.51932,-4.5 -1.0007,-1.10576 -2.57997,-2.01048 -3.50948,-2.01048 -0.92951,0 -2.50878,0.90472 -3.50948,2.01048 -1.76644,1.95189 -1.75131,2.08302 0.51932,4.5 1.28634,1.36924 2.63191,2.48952 2.99016,2.48952 0.35825,0 1.70382,-1.12028 2.99016,-2.48952 z m 184.03549,-15.03779 2.37428,-2.5273 -2.69996,-2.69997 -2.69997,-2.69997 -2.69997,2.69997 -2.69996,2.69997 2.37428,2.5273 c 1.30585,1.39002 2.6674,2.52731 3.02565,2.52731 0.35825,0 1.7198,-1.13729 3.02565,-2.52731 z m 339.78619,-31.73417 c 0.2311,-1.2 -0.30742,-1.73852 -1.73852,-1.73852 -1.43109,0 -2.07332,0.64223 -2.07332,2.07332 0,2.56265 3.30983,2.27193 3.81184,-0.3348 z m -218.06155,-25.48799 c 0.54676,-1.64213 -2.58648,-2.81434 -3.93038,-1.47044 -0.5751,0.5751 -0.7279,1.55977 -0.33954,2.18815 0.88355,1.42961 3.71332,0.95397 4.26992,-0.71771 z m -196.08612,-42.81775 c 0.78813,-2.05384 -0.79372,-3.58878 -2.56825,-2.49206 -1.51127,0.93402 -0.81522,4.05928 0.90408,4.05928 0.58452,0 1.3334,-0.70525 1.66417,-1.56722 z m -341.56466,-63.34182 4.9871,-4.90905 -4.974,-4.97397 -4.9739,-4.97397 -5.1334,4.94794 -5.1334,4.94794 4.814,4.87479 c 2.6477,2.68113 4.9519,4.90192 5.1203,4.93508 0.1684,0.0332 2.5504,-2.14879 5.2933,-4.84876 z m 173.90049,-19.67429 c 0,-1.76593 -2.15276,-1.45839 -2.77083,0.39583 -0.21771,0.65313 0.31666,1.1875 1.1875,1.1875 0.87083,0 1.58333,-0.7125 1.58333,-1.58333 z m 228.02565,-25.94397 2.37428,-2.52731 -2.69996,-2.69997 -2.69997,-2.69996 -2.69997,2.69996 -2.69996,2.69997 2.37428,2.52731 c 1.30585,1.39001 2.6674,2.5273 3.02565,2.5273 0.35825,0 1.7198,-1.13729 3.02565,-2.5273 z m 384.65773,-8.2227 c 0.34134,-0.9625 1.29696,-2.5375 2.12361,-3.5 1.33731,-1.5571 1.33731,-1.9429 0,-3.5 -0.82665,-0.9625 -1.78227,-2.5375 -2.12361,-3.5 -0.91302,-2.57453 -1.97833,-2.11344 -3.85837,1.67001 -1.56665,3.15278 -1.56665,3.60183 0,6.94283 1.86404,3.97519 2.93254,4.4978 3.85837,1.88716 z m -185.68338,-0.75 c 0,-0.825 -0.675,-1.5 -1.5,-1.5 -1.56157,0 -1.98397,1.1827 -0.83333,2.33334 1.15063,1.15063 2.33333,0.72824 2.33333,-0.83334 z m -736.19169,-2.575 c -0.1971,-0.59125 -0.7859,-1.075 -1.3084,-1.075 -0.5225,0 -1.1112,0.48375 -1.3083,1.075 -0.1971,0.59125 0.3917,1.075 1.3083,1.075 0.9167,0 1.5055,-0.48375 1.3084,-1.075 z m 263.19169,-33.25124 c 0,-0.55895 -0.75106,-1.84619 -1.66903,-2.86053 -1.6174,-1.78721 -1.74132,-1.77635 -4.00561,0.35084 l -2.33657,2.19509 2.17851,2.31893 c 2.03929,2.17072 2.29529,2.21325 4.00561,0.66543 1.0049,-0.90942 1.82709,-2.11081 1.82709,-2.66976 z"
         id="path6691" />
      <path
         style="fill:#7076fc"
         d="m -1208.59,-735.92145 v -216.5169 h 558 557.999989 v 44.6713 c 0,40.1637 -0.167,44.8558 -1.655,46.5 -1.54,1.7016 -1.54,1.9558 0,3.6574 1.5235,1.6835 1.655,13.0336 1.655,142.8785 v 141.0496 l -15.249999,0.5044 c -16.6539,0.5508 -25.1291,2.3005 -37.0496,7.6489 -14.7122,6.6009 -30.4681,20.0253 -39.4919,33.648 -2.3908,3.6093 -4.8523,6.394 -5.4699,6.1881 -0.6176,-0.2059 -2.949,-3.9497 -5.1808,-8.3195 -16.1343,-31.5909 -43.54749,-53.5525 -78.12939,-62.592 -11.1126,-2.9047 -13.0911,-3.1171 -28.9284,-3.1051 -12.256,0.01 -18.8139,0.4633 -23.5,1.6269 -3.575,0.8877 -7.7375,1.6206 -9.25,1.6287 l -2.75,0.015 v -12.369 c 0,-36.8218 -14.6846,-68.3668 -42.6218,-91.5586 -21.2165,-17.6128 -44.1407,-26.5199 -71.3782,-27.7335 -27.4398,-1.2227 -51.2419,5.3707 -73.188,20.2737 -14.3295,9.7309 -24.9868,20.6125 -34.4131,35.1374 -2.9447,4.5375 -5.4868,8.25 -5.6492,8.25 -0.1624,0 -3.7403,-1.3265 -7.9508,-2.9479 -20.997,-8.0852 -47.1437,-8.0586 -67.6032,0.069 -9.5181,3.781 -14.8491,6.8264 -23.9025,13.6547 l -7.2068,5.4355 -6.9854,-4.6439 c -9.1782,-6.1017 -19.7654,-10.9249 -30.1678,-13.7435 -12.1374,-3.2887 -34.64,-3.2632 -46.9327,0.053 -38.1465,10.2916 -64.9629,41.3124 -69.4795,80.3731 -0.7803,6.7479 -0.7255,6.731 -12.2975,3.7812 -14.6602,-3.7369 -34.3724,-4.5098 -50.9468,-1.9974 -15.0621,2.2832 -34.7085,10.2869 -48.0746,19.585 -3.4639,2.4097 -6.9427,4.3812 -7.7307,4.3812 -0.7881,0 -4.704,-2.1847 -8.7021,-4.8548 -18.8544,-12.5919 -45.0327,-20.1847 -74.2693,-21.5411 -41.1214,-1.9079 -72.4041,8.1411 -101,32.4442 -9.5806,8.1423 -14.3646,13.49 -22.7691,25.4517 l -6.3236,9 -25.7036,0.2669 -25.7037,0.2669 z m 334.9894,129.9958 c 1.6238,-1.9565 0.5753,-4.5127 -1.851,-4.5127 -2.3653,0 -3.5796,2.7634 -2.0332,4.6268 1.4595,1.7585 2.3519,1.7323 3.8842,-0.1141 z m 706.69609,-27.687 c 2.8653,-2.6917 2.8846,-3.59 0.1402,-6.5112 -2.6917,-2.8653 -3.59,-2.8846 -6.5112,-0.1402 -2.8653,2.6918 -2.8846,3.59 -0.1402,6.5113 2.6917,2.8652 3.59,2.8845 6.5112,0.1401 z m -945.01489,-27.2416 c -0.3447,-0.8984 -1.2416,-1.3022 -2.1327,-0.9602 -1.8504,0.71 -2.0323,3.0282 -0.2879,3.6678 1.7669,0.6479 3.1252,-0.8715 2.4206,-2.7076 z m 312.8101,-2.5639 2.8548,-2.9799 -2.7193,-2.5201 c -3.4052,-3.1559 -4.6683,-3.1581 -7.6225,-0.013 l -2.355,2.5067 2.8677,2.9933 c 1.5773,1.6462 3.1494,2.9932 3.4936,2.9932 0.3442,0 1.9105,-1.3409 3.4807,-2.9798 z m 183.704,-15.2271 2.8631,-3.2068 -3.0239,-3.0239 -3.0239,-3.0239 -3.2085,3.2084 -3.2084,3.2085 2.8955,3.0223 c 1.5926,1.6623 3.1087,3.0223 3.3693,3.0223 0.2605,0 1.7621,-1.4431 3.3368,-3.2069 z m 339.8569,-30.3433 c 1.0605,-1.2777 1.0078,-1.829 -0.3,-3.1367 -0.8726,-0.8726 -2.2964,-1.3142 -3.1641,-0.9812 -1.8758,0.7198 -2.1092,4.2869 -0.3275,5.0058 2.0491,0.8269 2.4456,0.734 3.7916,-0.8879 z m -218.2387,-27.8271 c -0.1926,-1.3495 -1.0264,-2.1227 -2.2892,-2.1227 -2.2881,0 -3.3629,3.3571 -1.4528,4.5377 2.0013,1.2368 4.0723,-0.1 3.742,-2.415 z m -195.3029,-43.1227 c 0,-2.5348 -3.9718,-3.3189 -4.876,-0.9626 -0.8899,2.3192 0.1998,3.629 2.7204,3.2698 1.3865,-0.1976 2.1556,-1.0207 2.1556,-2.3072 z m -341.7885,-62.168 5.668,-5.668 -2.4384,-1.582 c -1.3411,-0.8701 -3.9015,-3.157 -5.6897,-5.082 l -3.2514,-3.5 -3.2514,3.5 c -1.7883,1.925 -4.348,4.2115 -5.6884,5.0811 l -2.4371,1.5811 5.4385,5.5942 c 2.9911,3.0768 5.5607,5.6278 5.7101,5.6689 0.1495,0.041 2.8224,-2.4759 5.9398,-5.5933 z m 173.7885,-19.332 c 0,-0.8099 -0.7875,-1.6243 -1.75,-1.8096 -1.2279,-0.2365 -1.75,0.3035 -1.75,1.8096 0,1.5062 0.5221,2.0461 1.75,1.8096 0.9625,-0.1853 1.75,-0.9997 1.75,-1.8096 z m 228.5273,-31.4709 c -2.867,-3.0519 -4.3899,-3.1665 -7.0273,-0.5291 -2.6296,2.6296 -2.5272,3.6069 0.69,6.5885 l 2.69,2.493 3.0117,-3.0116 3.0116,-3.0117 z m 386.2511,-6.2842 c 1.6711,-1.8466 1.6668,-2.0475 -0.093,-4.3406 -1.0149,-1.3223 -2.1326,-3.1918 -2.484,-4.1543 -0.8854,-2.4255 -2.4335,-2.1876 -3.2525,0.5 -0.3771,1.2375 -1.3772,3.0375 -2.2224,4 -1.3509,1.5384 -1.36,1.9616 -0.075,3.5 0.8039,0.9625 2.0594,3.1 2.79,4.75 l 1.3283,3 1.1281,-2.6594 c 0.6204,-1.4627 1.9166,-3.5308 2.8803,-4.5957 z m -187.7784,1.7551 c 0,-0.8099 -0.7875,-1.6243 -1.75,-1.8096 -1.2279,-0.2365 -1.75,0.3035 -1.75,1.8096 0,1.5062 0.5221,2.0461 1.75,1.8096 0.9625,-0.1853 1.75,-0.9997 1.75,-1.8096 z m -736.5,-2 c 0,-1.1 -0.6484,-2 -1.441,-2 -1.7666,0 -2.896,1.6456 -2.059,3 1.0875,1.7596 3.5,1.0703 3.5,-1 z m 262.553,-31.0585 c 1.9979,-2.2078 1.3925,-4.3117 -1.8249,-6.3412 -1.2602,-0.7949 -2.2268,-0.4804 -4.1888,1.3628 l -2.5505,2.3961 2.1799,2.3204 c 2.6835,2.8565 3.9878,2.91 6.3843,0.2619 z"
         id="path6685" />
      <path
         style="fill:#6e74fc"
         d="m -1208.59,-735.93835 v -216.5 h 558 557.999966 v 44.8775 c 0,38.6712 -0.2074,45.0498 -1.5,46.1225 -1.9214,1.5946 -1.9214,3.6243 0,4.3616 1.3235,0.5079 1.5,17.1545 1.5,141.4832 v 140.9077 l -14.749996,0.507 c -21.8889,0.7524 -37.9281,5.8831 -53.6784,17.1709 -7.6059,5.4509 -19.06327,17.2735 -24.05277,24.8196 -2.0911,3.1625 -4.1821,5.75 -4.6467,5.75 -0.4646,0 -2.3474,-3.0375 -4.1841,-6.75 -16.8112,-33.9807 -46.3309,-56.8494 -84.2451,-65.2643 -13.1477,-2.918 -34.6309,-2.9848 -47.9429,-0.1489 -4.95,1.0545 -9.3375,1.7211 -9.75,1.4812 -0.4125,-0.2398 -0.7518,-5.247 -0.754,-11.127 -0.014,-37.0716 -16.2965,-71.3924 -44.5384,-93.8796 -33.0844,-26.3428 -74.7159,-33.832 -114.9576,-20.6802 -24.6863,8.068 -48.5335,26.5084 -62.9849,48.7044 -4.2107,6.4672 -6.1899,8.6961 -7.3839,8.3155 -0.8971,-0.286 -4.6958,-1.6769 -8.4416,-3.0909 -28.8642,-10.8966 -63.0702,-5.4581 -89.1847,14.1796 -3.8473,2.8931 -7.2752,5.2602 -7.6176,5.2602 -0.3423,0 -3.7195,-2.0918 -7.5048,-4.6484 -9.0671,-6.124 -17.4009,-9.8567 -29.206,-13.0815 -8.372,-2.2871 -11.5637,-2.6376 -23.6765,-2.6006 -16.1821,0.049 -28.1356,2.6108 -40.9513,8.7749 -27.33,13.1452 -47.7122,40.4423 -51.6875,69.2233 -1.3186,9.5459 -2.3012,11.7696 -4.7714,10.7979 -11.7518,-4.6231 -39.9245,-6.8896 -56.149,-4.5173 -17.8134,2.6047 -38.2217,10.7093 -51.7095,20.5352 -7.027,5.1191 -5.8367,5.2511 -16.5936,-1.8404 -14.3165,-9.438 -33.2533,-15.9802 -55.6377,-19.2215 -17.358,-2.5135 -48.7439,-1.5459 -62.5,1.9267 -33.3598,8.4214 -61.6848,28.3091 -80.5683,56.5691 l -5.4009,8.0826 h -25.2654 -25.2654 z m 334.8484,130.6148 c 2.0242,-1.2827 0.9499,-4.5694 -1.6131,-4.935 -2.6873,-0.3833 -4.0065,2.186 -2.2247,4.3329 1.4143,1.7041 1.9631,1.7902 3.8378,0.6021 z m 706.83707,-28.2891 c 2.8653,-2.6918 2.8846,-3.59 0.1402,-6.5113 -2.7674,-2.9458 -3.7076,-2.9065 -7.1645,0.2989 l -2.8183,2.6133 2.7656,2.8867 c 3.3155,3.4605 4.0708,3.5366 7.077,0.7124 z m -944.79557,-25.193 c 0.8645,-1.0417 0.7645,-1.6747 -0.4199,-2.6577 -1.9113,-1.5862 -4.0441,0.086 -3.1341,2.4578 0.7407,1.9302 2.0565,2.0042 3.554,0.1999 z m 312.5586,-3.9974 c 3.1053,-2.8779 3.1356,-3.3847 0.3772,-6.3209 -2.7106,-2.8853 -4.5526,-2.9196 -7.5112,-0.1401 -2.8744,2.7004 -2.8819,3.4452 -0.064,6.4175 2.8317,2.9873 4.0144,2.9944 7.1985,0.043 z m 184.0515,-15.6353 2.8742,-3 -2.8742,-3 c -1.5808,-1.65 -3.2168,-3 -3.6355,-3 -1.0651,0 -5.8645,4.5502 -5.8645,5.5599 0,0.9784 5.0885,6.4401 6,6.4401 0.3442,0 1.9192,-1.35 3.5,-3 z m 339.9972,-30.9911 c 0.8159,-2.5708 -0.1123,-4.0089 -2.5876,-4.0089 -2.1899,0 -3.4326,2.1947 -2.5479,4.5 0.8364,2.1798 4.3958,1.8395 5.1355,-0.4911 z m -218.6675,-25.7589 c 1.2996,-2.5268 0.355,-4.25 -2.3297,-4.25 -1.2833,0 -2.535,0.5625 -2.7815,1.25 -0.6405,1.7863 1.095,4.75 2.7815,4.75 0.7863,0 1.8347,-0.7875 2.3297,-1.75 z m -195.9813,-42.1352 c 2.0242,-1.2827 0.9499,-4.5694 -1.6131,-4.935 -2.6873,-0.3833 -4.0065,2.186 -2.2247,4.3329 1.4143,1.7041 1.9631,1.7902 3.8378,0.6021 z m -344.8484,-60.1316 c 0,-0.5593 2.0644,-2.9949 4.5876,-5.4125 l 4.5875,-4.3956 -5.2783,-5.0876 c -2.903,-2.7981 -5.5566,-5.0875 -5.8968,-5.0875 -0.9234,0 -11,9.882 -11,10.7876 0,0.4296 1.334,1.5692 2.9645,2.5323 1.6304,0.9632 3.7525,3.0852 4.7156,4.7156 1.6552,2.802 5.3199,4.1437 5.3199,1.9477 z m 178,-23.9832 c 0,-1.3334 -0.6666,-2 -2,-2 -1.3333,0 -2,0.6666 -2,2 0,1.3333 0.6667,2 2,2 1.3334,0 2,-0.6667 2,-2 z m 227.5214,-26.0223 2.8956,-3.0223 -3.2085,-3.2085 -3.2085,-3.2085 -3.2084,3.2085 -3.2085,3.2085 2.8956,3.0223 c 1.5925,1.6622 3.1771,3.0223 3.5213,3.0223 0.3442,0 1.9289,-1.3601 3.5214,-3.0223 z m 387.2254,-12.2277 c 1.404,-1.5718 1.4074,-1.9283 0.033,-3.5 -0.8414,-0.9625 -2.191,-3.0443 -2.999,-4.6261 l -1.4692,-2.8761 -2.5418,4.5478 -2.5419,4.5478 2.5962,5.2459 2.5962,5.2459 1.3814,-3.4176 c 0.7598,-1.8797 2.0849,-4.2051 2.9447,-5.1676 z m -187.7468,2.7186 c 0,-0.8423 -0.7052,-1.802 -1.5672,-2.1328 -1.8807,-0.7217 -3.9316,1.048 -2.9866,2.577 1.0187,1.6484 4.5538,1.3035 4.5538,-0.4442 z m -736.2497,-2.2181 c 0.5468,-1.6421 -2.5865,-2.8143 -3.9304,-1.4704 -0.5751,0.5751 -0.7279,1.5597 -0.3395,2.1881 0.8836,1.4296 3.7133,0.954 4.2699,-0.7177 z m 261.8027,-31.3091 c 1.998,-2.2077 1.3925,-4.3117 -1.8249,-6.3411 -1.2601,-0.7949 -2.2267,-0.4805 -4.1887,1.3627 l -2.5506,2.3961 2.1799,2.3205 c 2.6836,2.8564 3.9878,2.9099 6.3843,0.2618 z"
         id="path6683" />
      <path
         style="fill:#6c72fc"
         d="m -1208.59,-735.93835 v -216.5 h 557.99999 557.999965 v 45.0314 c 0,39.1054 -0.1974,45.1071 -1.5,45.6069 -1.9412,0.745 -1.9412,3.9784 0,4.7233 1.3235,0.5079 1.5,17.1405 1.5,141.357 v 140.7814 l -13.250005,0.066 c -20.8884,0.1039 -38.0818,5.3221 -54.1615,16.4379 -8.5026,5.8779 -19.72319,17.2177 -25.2028,25.4705 -2.0179,3.0391 -4.0222,5.5257 -4.454,5.5257 -0.4318,0 -1.8969,-2.4284 -3.25569,-5.3965 -4.6134,-10.0771 -13.9533,-23.0286 -23.602,-32.7283 -16.73657,-16.8253 -35.97526,-27.5181 -59.57397,-33.111 -12.306,-2.9165 -39.20669,-3.1542 -50.7391,-0.4484 -4.25649,0.9986 -8.2156,1.5212 -8.798,1.1613 -0.64189,-0.3967 -0.8134,-2.2932 -0.43539,-4.8158 0.95299,-6.3607 -1.3158,-27.3197 -4.0914,-37.7966 -3.0541,-11.5279 -12.4952,-30.9362 -19.63521,-40.3647 -17.2536,-22.7838 -41.2818,-38.6143 -69.3009,-45.6578 -11.9188,-2.9961 -36.25779,-3.66 -49.18409,-1.3416 -26.2923,4.7157 -48.3936,16.5023 -66.8558,35.6539 -4.6524,4.8262 -10.9626,12.6157 -14.02261,17.3102 -3.05989,4.6944 -5.9686,8.5353 -6.46349,8.5353 -0.495,0 -3.2624,-0.9312 -6.1499,-2.0693 -10.559,-4.162 -21.7535,-6.2317 -34.00031,-6.2862 -10.46939,-0.047 -11.58609,-0.2202 -10.8046,-1.6805 0.47941,-0.8957 1.5711,-2.2091 2.4262,-2.9187 2.0963,-1.7399 1.9613,-2.8343 -0.6954,-5.6371 -2.84109,-2.9972 -4.825,-3.0218 -7.57569,-0.094 -2.77651,2.9555 -2.73321,3.9794 0.3069,7.2598 2.7231,2.9383 2.506,4.4257 -0.6459,4.4257 -8.2523,0 -30.1657,9.4993 -41.1383,17.8331 -3.7416,2.8418 -7.1806,5.1669 -7.6421,5.1669 -0.4615,0 -4.7557,-2.4588 -9.5425,-5.4641 -16.0573,-10.081 -31.7038,-14.5358 -51.054,-14.5358 -46.963,0 -85.6567,32.5035 -93.1873,78.2792 -0.9248,5.6214 -1.7939,10.388 -1.9313,10.5925 -0.1374,0.2044 -3.7576,-0.558 -8.0449,-1.6943 -12.6988,-3.3657 -23.5209,-4.4999 -37.1984,-3.8985 -24.0112,1.0557 -44.4758,7.7371 -63.8125,20.8337 -3.9688,2.6881 -7.6468,4.8874 -8.1733,4.8874 -0.5265,0 -2.2309,-1.0717 -3.7874,-2.3814 -3.9449,-3.3194 -20.4317,-11.8724 -28.8233,-14.9529 -18.741,-6.8797 -33.4865,-9.127 -59.5,-9.0682 -18.1891,0.041 -23.0666,0.3843 -31.6724,2.2287 -24.4594,5.2419 -46.4139,16.8376 -64.702,34.1738 -8.6371,8.1875 -22.781,25.7634 -24.115,29.9665 -0.6267,1.9744 -1.3841,2.0335 -26.078,2.0335 h -25.4326 z m 335.8041,128.3777 c 0.34759,-2.9981 -2.2218,-4.6059 -4.43091,-2.7725 -1.4678,1.2181 -1.8315,4.1032 -0.6644,5.2703 1.62971,1.6297 4.79661,0.077 5.09531,-2.4978 z m 706.35665,-26.0578 c 1.5616,-1.7491 2.8392,-3.3587 2.8392,-3.577 0,-0.7994 -5.8734,-6.2429 -6.736,-6.2429 -1.0793,0 -6.264,5.2927 -6.264,6.3945 0,1.1242 5.3171,6.6055 6.4076,6.6055 0.5027,0 2.1916,-1.4311 3.7532,-3.1801 z m -944.34835,-26.0844 c 0.398,-2.0666 -2.4888,-3.4591 -4.0124,-1.9355 -1.5237,1.5236 -0.1311,4.4104 1.9354,4.0124 0.9579,-0.1845 1.8925,-1.1191 2.077,-2.0769 z m 311.38279,-2.4226 c 3.5211,-3.3734 3.50581,-4.2671 -0.1331,-7.7534 l -2.9378,-2.8146 -3.0069,2.3775 c -1.65369,1.3077 -3.0317,3.028 -3.0621,3.8229 -0.051,1.3355 4.67281,7.0547 5.827,7.0547 0.2795,0 1.77031,-1.2092 3.3129,-2.6871 z m 524.61541,-47.9953 c 0.4351,-3.056 -3.08461,-4.9009 -5.2392,-2.7462 -1.2044,1.2044 -1.3207,2.0287 -0.5018,3.5587 1.4297,2.6715 5.32349,2.1204 5.741,-0.8125 z m -218.4178,-25.6262 c 0.8831,-1.4425 0.725,-2.0925 -0.781,-3.2112 -3.4759,-2.5823 -7.41,1.3216 -4.3827,4.349 1.6045,1.6045 3.7781,1.1255 5.1637,-1.1378 z m -195.43,-42.622 c 0.7799,-1.4572 0.6484,-2.3153 -0.5363,-3.5 -1.7905,-1.7905 -1.7278,-1.7748 -3.8448,-0.9624 -1.5729,0.6036 -2.1881,4.4533 -0.9151,5.7263 1.3286,1.3286 4.2865,0.6228 5.2962,-1.2639 z m -344.9204,-60.4265 c 1.2652,-1.8463 3.5719,-4.2088 5.1261,-5.25 1.5541,-1.0411 2.827,-2.2402 2.8286,-2.6647 0,-0.4244 -2.4475,-3.222 -5.4423,-6.2169 l -5.4452,-5.4451 -5.5548,5.4232 c -3.0552,2.9828 -5.5536,5.7804 -5.552,6.2169 0,0.4365 1.2745,1.6455 2.8287,2.6866 1.5541,1.0412 3.8608,3.4037 5.126,5.25 1.2651,1.8464 2.6342,3.3571 3.0425,3.3571 0.4082,0 1.7773,-1.5107 3.0424,-3.3571 z m 176.95759,-22.5359 c 0,-2.42 -2.50189,-3.4122 -4.01299,-1.5914 -1.4688,1.7698 -0.4492,3.4844 2.072,3.4844 1.2377,0 1.94099,-0.6859 1.94099,-1.893 z m 227.25,-25.5907 c 3.4683,-3.0526 3.3965,-4.4174 -0.38999,-7.4125 l -3.02931,-2.3961 -3.12379,3.1238 -3.12391,3.1239 2.8956,3.0223 c 1.5925,1.6622 3.1488,3.0081 3.4584,2.9907 0.3096,-0.017 1.8005,-1.1208 3.313,-2.4521 z m 384.8877,-7.9389 c 0.41071,-1.5358 1.51751,-3.644 2.45951,-4.6849 1.566,-1.7304 1.5769,-2.0426 0.1273,-3.6444 -0.8719,-0.9635 -2.05551,-2.9885 -2.6302,-4.5 -0.5747,-1.5115 -1.3935,-2.7467 -1.8196,-2.745 -0.4261,0 -1.74981,2.005 -2.9416,4.4517 -2.1563,4.427 -2.1575,4.4668 -0.25,8.2083 1.0543,2.0679 1.9169,4.3771 1.9169,5.1316 0,2.3705 2.356,0.7055 3.13769,-2.2173 z m -185.31819,-2.4058 c 0.2376,-1.6147 -0.196,-2.1716 -1.691,-2.1716 -2.6319,0 -3.6169,1.7066 -2.0645,3.5771 1.6238,1.9566 3.3562,1.3083 3.7555,-1.4055 z m -736.2925,-1.2154 c 0.9182,-1.4856 -1.3977,-3.9431 -3.1002,-3.2898 -2.1919,0.8411 -1.7776,4.3336 0.5141,4.3336 1.0676,0 2.2313,-0.4697 2.5861,-1.0438 z m 261.79,-31.7652 2.6911,-2.809 -2.9973,-2.8717 -2.9974,-2.8716 -2.50671,2.3549 c -1.3787,1.2953 -2.5067,2.7756 -2.5067,3.2897 0,1.011 4.1396,5.6711 5.0629,5.6994 0.3096,0.01 1.77391,-1.2468 3.25411,-2.7917 z"
         id="path6681" />
      <path
         style="fill:#6970fc"
         d="m -1208.59,-735.93837 v -216.49998 h 558 558.00008 v 44.87803 44.87802 l -2.25,1.62198 -2.25,1.62197 2.25,1.62197 2.25,1.62197 v 140.62804 140.628 l -15.7476,0.083 c -14.0729,0.074 -16.6824,0.3671 -24.536,2.7567 -21.3536,6.4972 -41.5145,21.2307 -52.7247,38.531 -1.8281,2.8213 -3.6211,5.1296 -3.9845,5.1296 -0.3633,0 -1.75,-2.3549 -3.0816,-5.233 -7.4688,-16.1442 -25.3287,-36.8887 -40.42095,-46.9495 -19.945,-13.2957 -40.79507,-20.2455 -64.28603,-21.4279 -10.90369,-0.5488 -18.06954,0.1234 -35.31921,3.3131 l -2.60522,0.4818 -0.57529,-15.8423 c -0.64713,-17.8204 -2.80812,-27.7115 -9.43306,-43.1761 -7.42665,-17.336 -22.86449,-36.959 -38.19447,-48.5489 -8.70908,-6.5842 -24.68142,-14.8767 -35.58675,-18.4757 -36.04827,-11.8968 -75.28076,-6.3703 -107.5,15.1431 -9.92186,6.625 -26.22309,23.1878 -32.93687,33.4654 -2.9641,4.5375 -5.93731,8.25 -6.60714,8.25 -0.66983,0 -4.11202,-1.0894 -7.64931,-2.4208 -9.74709,-3.667 -20.63388,-5.5792 -31.76922,-5.5792 -5.52319,0 -10.04216,-0.3085 -10.04216,-0.6855 0,-0.3771 0.98328,-1.7322 2.18507,-3.0115 l 2.18507,-2.3259 -3.38124,-3.4885 c -1.85968,-1.9187 -3.77757,-3.4886 -4.26199,-3.4886 -1.16889,0 -6.72691,5.5921 -6.72691,6.7681 0,0.5071 0.9,1.7364 2,2.7319 1.1,0.9955 2,2.3421 2,2.9925 0,0.6568 -3.88916,2.1331 -8.75,3.3214 -10.58018,2.5864 -24.36779,9.2245 -33.45572,16.1074 -3.68814,2.7933 -7.33996,5.0787 -8.11514,5.0787 -0.77518,0 -2.48261,-0.8269 -3.79428,-1.8375 -4.36279,-3.3614 -14.40095,-8.8316 -21.19249,-11.5487 -22.1396,-8.8572 -49.15706,-8.6246 -71.69237,0.6172 -30.52917,12.5202 -53.49835,41.7456 -57.85816,73.6174 -0.55286,4.0415 -1.2407,7.5838 -1.52854,7.8716 -0.28784,0.2879 -4.03108,-0.4034 -8.31832,-1.5361 -34.0431,-8.9942 -72.71167,-2.1529 -101.34115,17.9295 -5.73,4.0194 -6.27936,4.2042 -8.44798,2.8428 -12.53458,-7.8693 -17.90921,-10.728 -27.20112,-14.4678 -33.86113,-13.6285 -82.06213,-14.9733 -113.43173,-3.1648 -17.2799,6.5047 -33.5759,16.6851 -46.6998,29.1742 -9.2172,8.7714 -20.7465,22.988 -23.7229,29.2522 l -1.5441,3.25 h -24.9531 -24.9531 z m 336.69053,129.8641 c 1.4297,-3.7257 -4.07062,-7.0209 -6.61065,-3.9603 -0.68482,0.8251 -0.95261,2.4218 -0.59511,3.5482 0.81872,2.5796 6.25473,2.8904 7.20576,0.4121 z m 705.62245,-27.1688 c 1.4779,-1.5426 2.6871,-3.2055 2.6871,-3.6953 0,-1.2945 -5.1859,-6.5056 -6.4371,-6.4684 -1.5257,0.045 -6.5629,4.66 -6.5629,6.0123 0,1.8626 4.374,6.841 6.0629,6.9008 0.8596,0.03 2.7721,-1.2068 4.25,-2.7494 z m -944.81298,-26.6953 c 0,-1.3127 -0.7732,-2.1098 -2.25,-2.3195 -1.8457,-0.2622 -2.25,0.1547 -2.25,2.3195 0,2.1649 0.4043,2.5817 2.25,2.3196 1.4768,-0.2098 2.25,-1.0069 2.25,-2.3196 z m 312.57692,-2.4231 c 1.6077,-1.6077 2.92308,-3.2705 2.92308,-3.6952 0,-1.4741 -5.38307,-6.3817 -7,-6.3817 -1.60912,0 -7,4.9046 -7,6.3685 0,1.298 5.42829,6.5326 6.82692,6.5834 0.72981,0.026 2.64231,-1.2673 4.25,-2.875 z m 523.35165,-45.6483 c 1.85909,-1.8591 1.87504,-1.9928 0.53625,-4.4943 -1.79312,-3.3505 -6.96482,-1.8166 -6.96482,2.0657 0,1.9005 1.90459,4 3.62857,4 0.67572,0 1.93572,-0.7071 2.8,-1.5714 z m -217.59391,-28.2939 c 0.44619,-3.1536 -1.12167,-4.5305 -4.26144,-3.7424 -1.83699,0.461 -2.57322,1.308 -2.57322,2.9601 0,3.0351 0.88319,3.8026 3.96258,3.4435 1.7975,-0.2096 2.63501,-0.9856 2.87208,-2.6612 z m -195.31943,-42.1827 c 1.29155,-4.0693 -4.32095,-6.9085 -6.38075,-3.2278 -1.36905,2.4464 0.41862,5.2758 3.33332,5.2758 1.53789,0 2.63047,-0.7342 3.04743,-2.048 z m -342.33853,-63.1287 6.1767,-6.1767 -2.4267,-1.5555 c -1.3347,-0.8555 -4.0912,-3.3381 -6.1256,-5.51694 l -3.699,-3.9615 -4.301,4.44368 c -2.3656,2.44406 -5.171,4.92376 -6.2343,5.51046 -1.7834,0.9842 -1.4735,1.5394 4,7.1667 3.2633,3.3549 6.0457,6.1373 6.1832,6.1832 0.1375,0.046 3.0295,-2.6962 6.4267,-6.0934 z m 173.86495,-18.37347 c 1.06278,-1.28057 0.99712,-1.83962 -0.37755,-3.21429 -1.55213,-1.55213 -1.77607,-1.55213 -3.3282,0 -1.37467,1.37467 -1.44033,1.93372 -0.37755,3.21429 0.7076,0.8526 1.62634,1.55019 2.04165,1.55019 0.41531,0 1.33405,-0.69759 2.04165,-1.55019 z m 228.37502,-27.47759 2.91666,-2.97222 -2.91666,-2.97222 c -1.60417,-1.63473 -3.36667,-2.97051 -3.91667,-2.9684 -1.43221,0.005 -6.5,4.63713 -6.5,5.94062 0,1.30348 5.06779,5.93514 6.5,5.94062 0.55,0.002 2.3125,-1.33368 3.91667,-2.9684 z m 383.56806,-6.08736 c 0.01,-0.88833 0.9728,-2.83249 2.1432,-4.32036 l 2.1279,-2.70521 -2.7471,-5.42965 c -1.511,-2.9863 -3.0337,-5.42964 -3.3838,-5.42964 -0.7207,0 -5.1249,9.25491 -5.1249,10.76933 0,0.54218 0.675,1.54598 1.5,2.23067 0.825,0.68469 1.5,1.83549 1.5,2.55734 0,0.72185 0.4758,2.56401 1.0574,4.09367 0.8465,2.22659 1.2423,2.48885 1.9847,1.3151 0.51,-0.80636 0.9341,-2.19293 0.9426,-3.08125 z m -185.07266,-2.27892 c 0.89206,-1.07486 0.79899,-1.75203 -0.40649,-2.95751 -1.87341,-1.8734 -4.50558,-1.11868 -4.50558,1.29189 0,3.20926 2.83355,4.17009 4.91207,1.66562 z m -737.06367,-1.49108 c 1.8155,-1.15054 1.0568,-4.50943 -1.1129,-4.92728 -1.9436,-0.37431 -3.2569,2.01135 -2.3739,4.31242 0.6511,1.69664 1.5341,1.85235 3.4868,0.61486 z m 262.60008,-32.47953 c 1.40334,-1.30057 2.55152,-2.71147 2.55152,-3.13533 0,-0.89755 -4.80084,-5.5 -5.73707,-5.5 -1.06048,0 -5.26293,4.27985 -5.26293,5.35986 0,1.21102 4.02285,5.64014 5.12279,5.64014 0.42579,0 1.92235,-1.0641 3.32569,-2.36467 z"
         id="path6679" />
      <path
         style="fill:#686efe"
         d="m -1208.59,-735.92115 v -216.5172 h 557.99923 557.99918 v 44.8781 44.878 l -2.25,1.622 -2.25,1.6219 2.25,1.622 2.25,1.622 v 140.128 140.128 l -12.0691,-0.3353 c -15.6289,-0.4342 -28.1665,2.1378 -43.4336,8.9098 -11.6477,5.1666 -27.1843,18.3003 -36.288,30.6755 -2.5288,3.4375 -4.8672,6.25 -5.1966,6.25 -0.3293,0 -1.7871,-2.4229 -3.2395,-5.3842 -15.9307,-32.4823 -47.12976,-56.394 -84.55598,-64.8059 -12.56293,-2.8236 -36.76917,-3.0688 -48.03525,-0.4866 -4.02345,0.9222 -7.67058,1.6767 -8.10473,1.6767 -0.43415,0 -1.04334,-6.6375 -1.35377,-14.75 -0.90325,-23.6054 -7.14675,-42.9367 -20.26656,-62.75 -6.30621,-9.5235 -21.28365,-25.3782 -28.48179,-30.1501 -28.03734,-18.5886 -50.61577,-25.4598 -78.97507,-24.0349 -21.28923,1.0697 -36.6357,5.4474 -55.65968,15.8776 -10.1716,5.5768 -25.53787,17.8616 -32.14395,25.698 -4.4846,5.3198 -13.81445,18.4938 -14.49693,20.47 -0.27518,0.7969 -2.0179,0.5643 -5.79646,-0.7736 -12.45406,-4.4096 -18.74955,-5.6761 -31.15298,-6.267 -11.89027,-0.5664 -14.89539,-1.2827 -11.25,-2.6816 2.22701,-0.8546 1.81647,-4.5467 -0.75,-6.7449 -4.64114,-3.9752 -5.2367,-4.0057 -9.10241,-0.4648 -2.00617,1.8376 -3.64759,3.7058 -3.64759,4.1515 0,0.4457 1.16521,2.0266 2.58934,3.5131 l 2.58935,2.7027 -4.83935,1.0505 c -13.72542,2.9793 -26.53807,8.8111 -38.08402,17.3341 -3.59078,2.6507 -6.9486,4.8194 -7.46183,4.8194 -0.51323,0 -2.95052,-1.388 -5.4162,-3.0844 -7.93222,-5.4575 -20.08532,-10.9536 -30.10913,-13.6166 -12.78443,-3.3963 -33.35427,-3.8214 -45.76816,-0.9458 -31.58383,7.3161 -56.94324,28.9692 -68.68533,58.6468 -2.87872,7.2759 -5.81467,19.3376 -5.81467,23.8884 0,1.6465 -0.45591,3.2754 -1.01314,3.6197 -0.55723,0.3444 -3.59473,-0.1263 -6.75,-1.0459 -22.23873,-6.482 -48.62483,-5.4936 -72.73686,2.7246 -8.21112,2.7986 -23.98899,10.731 -30.15373,15.1599 -2.79682,2.0093 -5.42087,3.6533 -5.83122,3.6533 -0.41034,0 -3.89629,-2.0942 -7.74654,-4.6539 -13.95903,-9.2799 -36.89873,-17.387 -57.76847,-20.4159 -4.675,-0.6785 -16.6,-1.2432 -26.5,-1.2549 -19.6821,-0.023 -31.71,1.5584 -46,6.0491 -18.8883,5.9358 -44.9608,22.0649 -56.446,34.919 -10.1456,11.3549 -20.2902,25.3971 -19.8482,27.4741 0.2431,1.1425 -4.0893,1.4289 -24.952,1.6497 l -25.2462,0.2672 z m 335.41367,131.8758 c 2.33278,-0.8951 2.03961,-6.0776 -0.41821,-7.393 -2.96228,-1.5853 -6,0.3732 -6,3.8685 0,1.539 0.3,3.0982 0.66667,3.4649 0.83175,0.8317 3.66298,0.8611 5.75154,0.06 z m 707.56654,-28.643 c 1.6261,-1.7875 2.9698,-3.8188 2.9859,-4.5141 0.033,-1.4341 -5.9447,-7.1772 -7.4707,-7.1772 -1.4311,0 -7.5,5.6966 -7.5,7.04 0,1.9261 5.4065,7.7531 7.2641,7.8291 0.9702,0.04 3.0946,-1.3903 4.7207,-3.1778 z m -945.48471,-27.2363 c 0,-2.2061 -3.1089,-3.3048 -4.739,-1.6747 -1.6808,1.6808 -0.023,4.3372 2.4845,3.9812 1.4752,-0.2095 2.2545,-1.0068 2.2545,-2.3065 z m 312.80454,-1.8985 c 2.03248,-1.8617 3.69542,-3.7288 3.69542,-4.149 0,-1.1805 -6.75815,-7.4662 -8.02736,-7.4662 -1.26953,0 -6.74093,5.2007 -7.18418,6.8288 -0.35431,1.3014 5.30651,8.1197 6.76612,8.1496 0.58002,0.012 2.71752,-1.5016 4.75,-3.3632 z m 524.28421,-47.1129 c 1.0165,-4.0501 -0.15175,-5.6708 -3.83191,-5.3161 -2.53179,0.2439 -3.33014,0.8309 -3.58596,2.6366 -0.52665,3.7172 0.53899,5.1772 3.77864,5.1772 2.37845,0 3.14425,-0.5256 3.63923,-2.4977 z m -218.56857,-25.54 c 1.82658,-3.4131 0.32147,-5.9623 -3.52022,-5.9623 -2.46537,0 -3.53176,0.5247 -3.98801,1.9623 -0.9178,2.8917 1.16019,6.0377 3.98801,6.0377 1.42119,0 2.88229,-0.8458 3.52022,-2.0377 z m -196.22022,-42.1623 c 1.773,-1.773 1.45673,-5.5951 -0.55,-6.6466 -0.99667,-0.5223 -2.71857,-0.5513 -4,-0.067 -3.86218,1.4583 -2.43466,7.914 1.75,7.914 0.88,0 2.14,-0.54 2.8,-1.2 z m -345.79996,-59.8564 c 0,-0.581 2.2801,-3.2425 5.0669,-5.9145 l 5.067,-4.8582 -5.7666,-5.5854 c -3.1717,-3.072 -6.2393,-5.5842 -6.817,-5.5826 -0.5777,0 -1.9022,1.2745 -2.9433,2.8286 -1.0411,1.5542 -3.4036,3.8609 -5.25,5.126 -4.1476,2.842 -4.2091,4.108 -0.3116,6.4103 1.6751,0.9895 4.0376,3.3309 5.25,5.2032 2.0698,3.1961 5.7046,4.7079 5.7046,2.3726 z m 177.89477,-23.3168 c 1.54641,-1.8633 0.33205,-4.6268 -2.03318,-4.6268 -2.14816,0 -3.3776,2.213 -2.5,4.5 0.71951,1.875 3.02866,1.9396 4.53318,0.1268 z m 228.62782,-33.6032 c -3.60999,-3.768 -4.58364,-3.7685 -8.70478,0 l -3.30558,3.0192 3.89225,3.5658 3.89224,3.5658 3.56134,-3.5614 3.56133,-3.5613 -2.8968,-3.0236 z m 383.57407,0.5067 c 0.61903,-2.4584 1.75051,-4.9885 2.5144,-5.6225 1.80384,-1.497 1.77476,-4.3427 -0.0599,-5.8653 -0.79686,-0.6614 -1.96353,-2.762 -2.5926,-4.6681 -0.92997,-2.8178 -1.4068,-3.2473 -2.55115,-2.2975 -0.77407,0.6424 -1.41037,1.9004 -1.41399,2.7956 -0.004,0.8951 -0.87431,2.9438 -1.93485,4.5526 -1.90477,2.8895 -1.90469,2.9551 0.007,5.3849 1.06371,1.3528 1.93439,3.0448 1.93439,3.7598 0,1.7074 1.80742,6.4302 2.46085,6.4302 0.2807,0 1.01683,-2.0114 1.63585,-4.4697 z m -184.68644,-3.157 c 0.72436,-1.8877 -1.01718,-4.3733 -3.06409,-4.3733 -1.70262,0 -2.77674,2.4356 -1.98454,4.5 0.76899,2.004 4.26468,1.9162 5.04863,-0.1267 z m -736.59012,-3.138 c 0.4102,-2.8753 -2.4173,-4.0667 -4.5618,-1.9222 -1.3278,1.3278 -1.3709,1.8464 -0.2644,3.1796 1.7996,2.1683 4.4355,1.4816 4.8262,-1.2574 z m 261.86541,-30.4096 c 2.86522,-2.6917 2.88455,-3.5899 0.14014,-6.5112 -2.77351,-2.9523 -3.59657,-2.9082 -7.02506,0.3765 l -2.80881,2.691 2.69118,2.809 c 3.23771,3.3795 4.00669,3.4492 7.00255,0.6347 z"
         id="path6677" />
      <path
         style="fill:#646afd"
         d="m -1092.09,-617.69017 c -1.1,-0.65504 -4.1732,-1.42886 -6.8293,-1.7196 l -4.8293,-0.52861 -2.7718,-7.13771 c -6.0575,-15.5985 -14.353,-27.24646 -27.4988,-38.61186 -17.8941,-15.47055 -37.7848,-22.85528 -61.7432,-22.92314 l -12.8276,-0.0363 v -131.89548 -131.89548 h 558.0102 558.010278 l -0.2602,45.25 c -0.1928,33.53247 -0.5591,45.19355 -1.4143,45.03198 -0.6347,-0.11992 -1.7465,0.49579 -2.4706,1.36824 -1.1238,1.35419 -0.9184,1.90368 1.4041,3.7556 l 2.7206,2.16931 v 64.48991 64.48991 l -6.4586,2.81369 c -5.362798,2.33626 -9.586798,4.86767 -23.593698,14.13942 -0.3037,0.20107 -3.4537,-1.65785 -7,-4.13093 -9.6603,-6.73691 -19.422,-11.82965 -29.3303,-15.30179 -16.1787,-5.66946 -22.1915,-6.57202 -43.61745,-6.54725 -17.918,0.0207 -20.3466,0.24211 -29.93493,2.72898 -5.7392,1.48854 -10.6359,2.50547 -10.8815,2.25984 -0.2456,-0.24562 -1.0937,-4.84991 -1.8845,-10.23175 -3.5303,-24.02427 -17.114,-46.16371 -37.7991,-61.60706 -15.5234,-11.58963 -32.2322,-17.47876 -52.2095,-18.40158 -23.1442,-1.0691 -41.6673,3.95269 -60.5266,16.40939 -3.7117,2.45154 -7.2526,4.13008 -7.8864,3.73839 -0.6326,-0.39098 -4.0627,-2.91535 -7.6225,-5.60971 -8.5125,-6.44313 -18.5744,-11.45472 -30.255,-15.06924 -8.045,-2.4895 -11.7208,-3.02021 -24,-3.46501 -15.9583,-0.57807 -25.8259,0.81072 -37.8691,5.32975 -3.5029,1.31445 -7.1029,2.37418 -8,2.35495 -0.9287,-0.0199 -3.8958,-3.57228 -6.8919,-8.25137 -16.1928,-25.28943 -41.81,-43.47239 -73.7884,-52.3746 -9.3274,-2.59659 -11.2031,-2.77174 -29.9506,-2.79674 -18.5874,-0.0248 -20.7116,0.16317 -30.0751,2.66117 -23.6424,6.30729 -42.5144,16.90234 -58.4189,32.79737 -8.133,8.12811 -18.4611,21.97257 -22.7527,30.49913 -8.6595,17.20482 -13.7557,40.0625 -13.0951,58.73405 0.1506,4.25373 -0.1682,8.17599 -0.7084,8.71614 -0.6428,0.64278 -2.8767,0.49506 -6.4659,-0.42756 -23.3096,-5.99183 -54.51,-2.96711 -78.7029,7.62985 -27.2287,11.92668 -48.1521,32.71261 -63.203,62.788 -1.408,2.81344 -2.89,2.08626 -5.9787,-2.93357 -7.9825,-12.9732 -27.0222,-28.93659 -42.5993,-35.71643 -38.2985,-16.66919 -86.9482,-6.16208 -117.8784,25.45878 -9.1309,9.33482 -13.3077,15.3373 -19.1968,27.58771 -5.2911,11.00652 -7.4244,21.18161 -7.4246,35.41303 -10e-5,5.6375 -0.3377,10.23632 -0.7502,10.21959 -0.4125,-0.0167 -1.65,-0.56635 -2.75,-1.22138 z m -18.1241,-40.97945 c 1.5716,-2.49562 -1.649,-5.71623 -4.1447,-4.14463 -2.2274,1.4027 -2.8129,4.38826 -1.0796,5.50479 1.8842,1.2137 3.9406,0.67831 5.2243,-1.36016 z m 80.1009,-182.28257 6.5138,-6.51382 -2.2278,-1.73618 c -1.2254,-0.95491 -4.1297,-3.73113 -6.454,-6.16939 l -4.2262,-4.4332 -4.2913,4.4806 c -2.3602,2.46433 -5.3787,5.1642 -6.7078,5.99973 l -2.4165,1.51914 6.4165,6.59297 c 3.5291,3.62612 6.5207,6.63368 6.648,6.68346 0.1273,0.0498 3.1627,-2.84072 6.7453,-6.42331 z m 174.0232,-20.48619 c 0,-1.98389 -0.5677,-2.56532 -2.75,-2.81642 -2.3239,-0.2674 -2.75,0.0554 -2.75,2.08334 0,3.01315 0.8666,3.89634 3.4589,3.52527 1.4326,-0.20508 2.0411,-1.03748 2.0411,-2.79219 z m 227.5769,-24.92307 c 1.6077,-1.60769 2.9231,-3.44231 2.9231,-4.07693 0,-1.33214 -5.4397,-7.01441 -6.6731,-6.97068 -1.2695,0.045 -7.3269,5.80784 -7.3269,6.97068 0,1.16285 6.0574,6.92569 7.3269,6.97069 0.4548,0.0161 2.1423,-1.28607 3.75,-2.89376 z m 384.3631,-5.348 c 0.4225,-2.92612 1.524,-5.5491 2.8485,-6.78305 1.8029,-1.67966 1.9541,-2.29557 0.9154,-3.72893 -1.2367,-1.70668 -3.3467,-6.12133 -4.5249,-9.46695 -1.0152,-2.88291 -2.5364,-1.99312 -3.6476,2.13352 -0.5752,2.13593 -1.7175,4.44103 -2.5386,5.12244 -1.9932,1.65427 -1.8811,3.52143 0.4076,6.78454 1.0452,1.49023 2.1867,4.69158 2.5365,7.11412 1.1621,8.04623 2.7385,7.58325 4.0031,-1.17569 z m -184.44,-5.79549 c 0,-2.38786 -2.6583,-3.63876 -4.8264,-2.27114 -2.2729,1.43369 -2.4737,2.89473 -0.6488,4.71965 2.0389,2.03884 5.4752,0.5021 5.4752,-2.44851 z m -736.6384,-0.43344 c 0.9446,-2.46159 -0.4143,-4.5 -3,-4.5 -1.3334,0 -2.6834,0.675 -3,1.5 -0.9446,2.46159 0.4144,4.5 3,4.5 1.3334,0 2.6834,-0.675 3,-1.5 z m 261.402,-31.75609 c 3.3446,-3.45078 3.2906,-3.85392 -1.029,-7.67455 l -2.7481,-2.43064 -2.9932,2.86774 c -1.6463,1.57725 -2.9933,3.32141 -2.9933,3.87592 0,1.10123 4.994,6.61762 5.9909,6.61762 0.3392,0 2.0369,-1.46524 3.7727,-3.25609 z"
         id="path6671" />
      <path
         style="fill:#626afc"
         d="m -1093.09,-619.43838 c -1.1,-0.47269 -3.6972,-0.89106 -5.7715,-0.92971 -3.1474,-0.0587 -3.955,-0.52531 -4.8812,-2.82029 -11.5946,-28.73108 -27.2223,-46.14756 -51.4835,-57.37653 -13.7981,-6.38629 -25.3598,-8.94046 -40.6138,-8.97232 l -12.75,-0.0266 v -14.87824 c 0,-8.84014 0.4058,-15.12907 1,-15.49628 0.55,-0.33992 1,-1.89269 1,-3.45061 0,-2.1002 0.5817,-2.98146 2.25,-3.40841 1.2375,-0.31671 3.825,-2.64031 5.75,-5.16357 3.7799,-4.95468 4.097,-5.2872 8.2983,-8.70257 1.539,-1.25116 2.8723,-3.28734 2.9628,-4.52484 0.098,-1.33533 0.8201,-2.25 1.7773,-2.25 1.8879,0 5.9616,-4.04623 5.9616,-5.92144 0,-0.76778 -0.6422,-1.04611 -1.5818,-0.68555 -0.87,0.33385 -1.9835,0.60699 -2.4744,0.60699 -0.4908,0 -1.5775,1.32472 -2.4148,2.94382 -0.8373,1.6191 -2.7613,3.5316 -4.2757,4.25 -1.5143,0.7184 -3.3971,2.76868 -4.1838,4.55618 -0.948,2.15375 -2.1285,3.25222 -3.5,3.25659 -1.1383,0.004 -3.4195,0.90066 -5.0695,1.99341 -5.1795,3.4302 -5.5,2.96736 -5.5,-7.94098 0,-5.54864 0.4418,-10.21406 1,-10.55902 0.55,-0.33992 1,-1.29303 1,-2.11803 0,-0.825 -0.45,-1.22189 -1,-0.88197 -0.6641,0.41041 -1,-32.15628 -1,-96.94098 v -97.55902 h 242 c 187.5555,0 242,0.26997 242,1.2 0,0.93334 0.2666,0.93334 1.2,0 0.8168,-0.81689 5.5259,-1.19511 14.75,-1.18469 9.1179,0.0103 13.0593,0.33239 12.05,0.98469 -1.2068,0.77988 -1.0487,0.97237 0.809,0.98469 1.2875,0.009 2.0356,-0.42706 1.691,-0.98469 -0.34,-0.55 -0.179,-1 0.3576,-1 0.5366,0 1.2027,0.5625 1.4801,1.25 0.4035,1 0.5201,1 0.5833,0 0.063,-0.99704 60.6898,-1.25 299.5891,-1.25 h 299.510333 l -0.2602,45.25 c -0.2031,35.31351 -0.5347,45.27745 -1.5102,45.375 -0.6875,0.0688 -1.7,0.18125 -2.25,0.25 -2.0152,0.2519 -0.9272,3.83714 1.5,4.94305 l 2.5,1.13907 -0.038,64.27144 -0.038,64.27144 -9.811903,4.69373 c -5.3965,2.58155 -11.9084,6.29405 -14.4708,8.25 -2.5625,1.95595 -5.2427,3.55627 -5.9561,3.55627 -0.7134,0 -2.847,-1.15415 -4.7413,-2.56477 -7.0222,-5.22906 -22.7601,-13.48232 -31.4518,-16.49392 -15.6426,-5.42007 -28.5581,-7.24039 -46.9925,-6.62316 -11.3778,0.38096 -18.6001,1.15847 -25,2.69139 -4.95,1.18562 -9.64203,2.231 -10.42673,2.32307 -1.0467,0.12281 -1.7424,-1.96331 -2.6121,-7.83261 -6.7877,-45.80813 -44.638,-79.94786 -91.1404,-82.20587 -23.0612,-1.11978 -43.1696,4.39779 -61.6067,16.90432 l -5.7858,3.92474 -7.2142,-5.42598 c -9.287,-6.985 -19.8006,-12.26872 -31.7141,-15.93819 -17.8295,-5.49162 -42.8474,-4.95296 -60.1499,1.29511 -4.4869,1.62023 -8.7353,2.94587 -9.441,2.94587 -0.7057,0 -3.7138,-3.7125 -6.6847,-8.25 -7.9832,-12.19296 -21.8767,-26.31361 -33.5108,-34.05876 -14.1322,-9.4082 -23.7624,-13.67776 -41.4434,-18.37397 -9.4228,-2.50276 -11.838,-2.73153 -29.2702,-2.77255 -16.4427,-0.0387 -20.2306,0.25873 -28.1428,2.20975 -49.5487,12.21788 -85.5335,48.90379 -94.8967,96.74553 -1.2313,6.29123 -2.4956,23.91652 -2.4646,34.35699 0,0.88723 -0.6017,1.11975 -1.7459,0.67168 -9.0508,-3.5443 -38.6123,-4.64051 -53.7856,-1.99451 -22.2692,3.88343 -42.6662,13.3167 -59.3567,27.45158 -12.739,10.7884 -22.7784,23.29105 -30.3146,37.75241 -2.3612,4.53098 -4.5181,8.23414 -4.7931,8.22924 -0.275,-0.005 -2.1754,-2.63742 -4.2231,-5.85005 -12.2998,-19.29713 -35.0098,-34.65203 -60.2769,-40.7549 -10.0065,-2.4169 -30.3559,-2.41456 -41.9425,0.005 -33.0761,6.90656 -63.583,29.28795 -76.5117,56.13273 -6.2982,13.0775 -8.1517,20.41577 -8.777,34.75 -0.3059,7.01249 -0.8291,12.71836 -1.1625,12.67971 -0.3331,-0.0388 -1.5059,-0.4572 -2.6059,-0.92988 z m -17,-40.5 c 0,-2.42089 -0.4718,-3.06659 -2.444,-3.34497 -3.1967,-0.45122 -5.3911,2.35037 -3.95,5.04304 0.7046,1.31661 1.8733,1.8242 3.7112,1.61186 2.2453,-0.25939 2.6828,-0.79912 2.6828,-3.30993 z m -63.9546,-97.95455 c 2.4693,-2.46933 3.1953,-4.54545 1.5894,-4.54545 -1.5912,0 -6.1348,4.12719 -6.1348,5.57258 0,2.13331 1.7893,1.72897 4.5454,-1.02713 z m 141.2919,-79.99441 c 1.1193,-1.89693 3.6331,-4.48443 5.5864,-5.75 4.4199,-2.86371 4.5109,-4.84246 0.3263,-7.09804 -1.7875,-0.9635 -4.3206,-3.31583 -5.6289,-5.22741 -2.9211,-4.2676 -5.1393,-4.40773 -7.4645,-0.47153 -0.976,1.65223 -3.5445,4.01473 -5.7079,5.25 -4.8691,2.78028 -4.9899,4.9341 -0.4275,7.62595 1.9366,1.14266 4.4561,3.66211 5.5987,5.59878 2.6294,4.4564 5.117,4.47969 7.7174,0.0722 z m 774.3732,-5.14624 c 0.7092,-0.87736 2.4145,-2.68759 3.7895,-4.02273 1.375,-1.33514 3.1136,-3.04116 3.8636,-3.79116 0.75,-0.75 2.4886,-2.48864 3.8636,-3.86364 1.375,-1.375 3.1252,-3.11363 3.8893,-3.86363 0.7641,-0.75 3.4104,-3.52498 5.88063,-6.16662 7.1853,-7.68382 7.3179,-13.31789 0.2439,-10.3622 -2.56953,1.07363 -3.83603,2.42274 -4.68273,4.98841 -0.828,2.50873 -2.0281,3.81918 -4.1869,4.57175 -1.8468,0.64378 -3.4357,2.13654 -4.0768,3.82999 -0.5777,1.52627 -2.4533,3.45003 -4.168,4.27503 -1.7146,0.825 -3.6577,2.60606 -4.318,3.9579 -0.6602,1.35185 -2.1353,2.80376 -3.278,3.22648 -2.5832,0.95557 -4.1119,4.70956 -2.8773,7.06562 1.1451,2.18533 4.3497,2.26723 6.0572,0.1548 z m -598.8067,-15.71083 c 2.4854,-1.81738 1.7706,-6.09795 -1.0862,-6.50465 -2.8875,-0.41108 -4.8283,2.98803 -3.3176,5.81068 1.2552,2.34549 1.9874,2.46088 4.4038,0.69397 z m 648.00743,-4.59587 c 1.1586,-1.28018 1.6179,-3.15984 1.405,-5.75 -0.263,-3.20039 -0.6528,-3.79737 -2.3162,-3.54672 -2.767,0.41694 -6.5,4.82258 -6.5,7.67105 0,3.75625 4.5749,4.75977 7.4112,1.62567 z m 6.5888,-11.15712 c 0,-1.13245 -0.4303,-1.79304 -0.9563,-1.46797 -0.526,0.32507 -0.7029,1.25163 -0.393,2.05902 0.7932,2.06711 1.3493,1.82352 1.3493,-0.59105 z M -793.69,-875.53838 c 1.045,-1.155 2.3586,-2.54134 2.9192,-3.08077 1.0823,-1.04143 6.4546,-6.40181 7.85,-7.83258 0.9095,-0.93252 2.162,-2.21126 13.4396,-13.72112 9.2642,-9.45499 10.7236,-11.86165 8.5257,-14.05954 -2.1271,-2.12716 -6.444,-0.16809 -7.8576,3.56592 -0.568,1.50045 -2.4377,3.40309 -4.1548,4.22809 -2.0024,0.96203 -3.4511,2.61526 -4.0394,4.60961 -0.6673,2.26187 -1.861,3.45085 -4.3789,4.36133 -2.1709,0.785 -3.8341,2.2356 -4.4606,3.8904 -0.5495,1.45126 -2.4019,3.31366 -4.1166,4.13866 -1.7146,0.825 -3.6577,2.60606 -4.318,3.9579 -0.6602,1.35185 -2.1113,2.79487 -3.2246,3.20671 -2.5139,0.92994 -3.7535,5.32378 -2.0733,7.34838 1.7103,2.06077 3.6531,1.85856 5.8893,-0.61299 z m 597.74293,-3.4 c 1.3333,-1.33333 1.3254,-1.5 -0.072,-1.5 -0.8643,0 -1.5714,0.4187 -1.5714,0.93045 0,0.51175 -1.0125,1.12547 -2.25,1.36382 l -2.25,0.43337 2.3214,0.13618 c 1.2768,0.0749 2.9965,-0.53882 3.8215,-1.36382 z m -27.1804,-3.80061 c 0.9776,-1.81534 3.1026,-4.06114 4.7223,-4.99067 2.9852,-1.7133 3.0309,-3.70872 0.085,-3.70872 -2.0229,0 -5.2697,2.86807 -5.2697,4.65499 0,0.73976 -0.5271,1.34501 -1.1713,1.34501 -1.6603,0 -4.8287,3.05446 -4.8287,4.65499 0,0.7439 1.0469,1.34501 2.3425,1.34501 1.6245,0 2.8873,-1.01165 4.12,-3.30061 z m -401.46263,-8.15234 c 0,-1.41914 -6.5345,-6.54705 -8.3429,-6.54705 -0.7974,0 -2.8806,1.62952 -4.6293,3.62116 l -3.1794,3.62116 4.2231,3.93798 4.2231,3.93798 3.8527,-3.76209 c 2.119,-2.06915 3.8527,-4.23326 3.8527,-4.80914 z m 380.4085,1.55911 c 0.3986,-3.52313 1.469,-6.95199 2.6317,-8.43011 2.3482,-2.98523 2.4534,-4.4732 0.4711,-6.66362 -0.8188,-0.90478 -2.1016,-3.41522 -2.8506,-5.57874 -1.7729,-5.12095 -3.7968,-5.0114 -5.1128,0.27674 -0.5763,2.31573 -1.6103,4.76823 -2.2978,5.45 -1.6786,1.66458 -1.5754,3.82254 0.2808,5.87368 0.842,0.93038 1.8041,4.11581 2.1379,7.07875 1.1758,10.43389 3.6663,11.48129 4.7397,1.9933 z m 60.43863,-2.72465 c 2.8824,-3.09017 5.1052,-6.02492 4.9396,-6.52166 -0.3479,-1.04376 -11.7866,9.8504 -11.7866,11.22552 0,1.94373 1.7995,0.7075 6.847,-4.70386 z m -561.41853,-2.95294 c 0.8643,-0.86428 1.5715,-2.07716 1.5715,-2.69528 0,-0.61812 1.2091,-2.38597 2.687,-3.92857 2.6276,-2.74261 2.6384,-2.80472 0.4865,-2.80472 -4.0465,0 -9.1341,3.78831 -6.9229,5.1549 0.6914,0.42732 0.076,0.97594 -1.5528,1.3848 -2.5656,0.64392 -3.4776,2.34724 -2.0312,3.79363 1.1784,1.17835 4.1446,0.71258 5.7619,-0.90476 z m 316.372,-1.51416 c 0.4019,-3.45768 -1.9658,-5.43151 -4.7366,-3.94862 -3.7377,2.00036 -1.8086,7.42921 2.4244,6.82253 1.3224,-0.18953 2.1146,-1.17425 2.3122,-2.87391 z m 218.70503,0.0795 c 0.9985,-1.10338 1.5324,-2.28933 1.1862,-2.63546 -0.7968,-0.79679 -5.6917,2.35484 -5.6917,3.66464 0,1.6689 2.6016,1.07462 4.5055,-1.02918 z m -955.70553,-0.19387 c 1.8393,-1.83935 1.4295,-4.60677 -0.864,-5.83421 -2.6089,-1.39627 -4.936,0.28838 -4.936,3.57332 0,3.17924 3.5124,4.54843 5.8,2.26089 z m 1007.46683,-20.05 c 10.7757,-11.16282 11.7332,-12.23053 11.7332,-13.08389 0,-1.59965 -2.3688,-0.39285 -6.0533,3.08389 -2.1857,2.0625 -5.132,4.78604 -6.5473,6.05231 -1.4538,1.30072 -2.3316,2.93211 -2.0177,3.75 0.3346,0.87185 -0.048,1.44769 -0.9627,1.44769 -3.3573,0 -7.419,3.02519 -7.419,5.52568 0,1.36088 0.5259,2.47432 1.1688,2.47432 0.6428,0 5.1869,-4.1625 10.098,-9.25 z m -576.26683,4.25 c 0,-0.55 -0.1985,-1 -0.441,-1 -0.2426,0 -0.7191,0.45 -1.059,1 -0.34,0.55 -0.1415,1 0.4409,1 0.5825,0 1.0591,-0.45 1.0591,-1 z m -17.356,-9.71801 c 0.3279,-1.30632 0.3153,-2.65595 -0.028,-2.99917 -0.9812,-0.9812 -5.6161,3.86328 -5.6161,5.87006 0,1.56618 0.333,1.65251 2.5239,0.65424 1.3882,-0.6325 2.7923,-2.21881 3.1201,-3.52513 z m -151.5542,-7.02874 c 3.5759,-3.37515 3.5926,-3.93148 0.2231,-7.44853 -3.2523,-3.39465 -4.0332,-3.4278 -7.5629,-0.32108 -3.4293,3.01828 -3.4388,4.18798 -0.063,7.71164 3.3218,3.4673 3.7866,3.47094 7.4027,0.058 z m 158.1181,1.49675 c 1.8646,-1.46577 3.3506,-5.75 1.9943,-5.75 -1.6442,0 -6.2022,4.09533 -6.2022,5.57258 0,1.76106 2.0816,1.84883 4.2079,0.17742 z m 31.7921,-3.36803 c 0,-0.825 -0.45,-1.22189 -1,-0.88197 -0.55,0.33992 -1,1.29304 -1,2.11804 0,0.825 0.45,1.22188 1,0.88196 0.55,-0.33992 1,-1.29303 1,-2.11803 z m 11.6038,-8.93964 c 0.3226,-1.28538 1.6687,-3.04612 2.9914,-3.91275 2.9962,-1.96319 3.0935,-3.52958 0.2192,-3.52958 -3.398,0 -6.8144,3.83185 -6.8144,7.64293 0,2.5258 0.3519,3.15925 1.5086,2.71539 0.8297,-0.31841 1.7726,-1.6306 2.0952,-2.91599 z"
         id="path6669" />
      <path
         style="fill:#6068fc"
         d="m -1092.912,-619.45894 c -1.0034,-0.5835 -3.6076,-1.1323 -5.787,-1.2196 l -3.9626,-0.1586 -3.228,-8.0077 c -6.0394,-14.9815 -14.113,-26.2696 -26.609,-37.2035 -18.5194,-16.2045 -43.5097,-25.1402 -67.5227,-24.1442 l -8.5665,0.3554 2e-4,-13.7258 c 10e-5,-16.6038 -0.5664,-15.4288 15.7803,-32.731 15.1188,-16.0025 24.1784,-25.8856 31.7219,-34.6053 8.106,-9.3699 8.8717,-10.3975 8.2271,-11.042 -0.6008,-0.6009 -11.9714,8.9479 -23.2472,19.5225 -20.2745,19.0138 -29.8602,27.6141 -31.1016,27.9049 -1.0968,0.2569 -1.3804,-1.5552 -1.3804,-8.8198 0,-8.5867 0.1885,-9.4171 3.0964,-13.6436 3.2192,-4.679 3.264,-6.901 0.081,-4.0205 -1.0092,0.9133 -2.1369,1.6606 -2.5061,1.6606 -0.3692,0 -0.6713,-43.425 -0.6713,-96.5 v -96.5 h 241.46859 c 214.22792,0 241.40368,0.1692 240.89301,1.5 -0.31659,0.825 -0.90746,1.5 -1.31306,1.5 -0.4056,0 -3.37887,2.5875 -6.60727,5.75 -3.2284,3.1625 -6.9399,6.4837 -8.24777,7.3805 -1.30787,0.8967 -6.74153,5.8467 -12.07481,11 -5.33328,5.1532 -13.94526,13.1945 -19.13774,17.8695 -26.38021,23.7512 -30.54524,28.8643 -26.66935,32.7402 3.91485,3.9148 7.4974,0.6072 53.33223,-49.2402 6.57445,-7.15 14.33768,-15.8882 17.25162,-19.4182 2.91394,-3.53 5.89738,-7.0175 6.62987,-7.75 1.85684,-1.8569 25.69164,-1.9354 24.83247,-0.082 -0.31867,0.6875 -3.56705,3.9174 -7.21861,7.1777 -3.65157,3.2602 -12.93921,11.8769 -20.63921,19.1482 -7.7,7.2713 -16.39369,15.374 -19.31932,18.006 -6.51418,5.8604 -8.68149,9.6138 -7.17585,12.4271 0.70406,1.3155 2.09358,1.991 4.09587,1.991 3.87318,0 7.04453,-3.1047 42.3993,-41.5077 5.5,-5.9742 11.70645,-12.579 13.79211,-14.6773 l 3.7921,-3.815 h 297.96809 297.968072 l -0.2602,45.2488 c -0.2551,44.3699 -0.2987,45.2489 -2.2438,45.25 -1.1128,7e-4 -2.1369,0.7906 -2.3326,1.7992 -0.4059,2.0916 1.4863,4.7366 3.1621,4.42 0.8603,-0.1625 1.2196,16.2234 1.4113,64.3715 l 0.2573,64.5896 -3.7573,1.1516 c -3.1508,0.9658 -19.956002,10.4591 -25.338302,14.3136 -1.2766,0.9143 -3.0094,0.1652 -9,-3.891 -30.4659,-20.6284 -64.665,-26.7238 -101.87212,-18.1571 -5.0446,1.1615 -9.3698,1.9141 -9.6114,1.6725 -0.2416,-0.2417 -1.1667,-4.676 -2.0556,-9.854 -6.2232,-36.2479 -31.3648,-64.5311 -67.69776,-76.1567 -10.04955,-3.2156 -10.42912,-3.2574 -29.18199,-3.2133 -18.79337,0.044 -19.10875,0.081 -29,3.3678 -11.48299,3.8159 -15.35599,5.6474 -24.78118,11.7191 -3.72965,2.4026 -7.25133,4.3684 -7.82596,4.3684 -0.57462,0 -3.59809,-1.9632 -6.71882,-4.3626 -14.32037,-11.0104 -31.79885,-17.7492 -51.19209,-19.7372 -13.97811,-1.4329 -27.92088,0.2719 -42.13284,5.1516 -4.96657,1.7053 -9.13984,2.9537 -9.27394,2.7743 -0.1341,-0.1794 -3.13087,-4.5859 -6.65949,-9.7923 -12.23418,-18.0511 -29.63684,-32.8261 -50.01804,-42.4655 -15.99496,-7.5649 -29.72857,-10.8414 -51.89764,-12.3816 l -10.5,-0.7295 3.25,-3.1298 c 1.7875,-1.7214 3.24189,-3.7368 3.23197,-4.4786 -0.01,-0.7419 -1.82528,-2.8496 -4.03415,-4.684 l -4.01613,-3.3351 -3.8812,3.3351 c -2.13466,1.8344 -3.91929,3.8404 -3.96584,4.4578 -0.0466,0.6175 1.83756,2.8945 4.18692,5.06 l 4.27157,3.9374 -8.59083,1.17 c -12.72763,1.7335 -25.09419,5.596 -37.48372,11.7076 -18.1388,8.9476 -30.81839,19.1641 -43.3393,34.9203 -16.76191,21.0931 -24.7068,43.0315 -25.83262,71.3321 -0.39969,10.0472 -0.98024,15.238 -1.70167,15.2148 -0.60225,-0.019 -4.02,-0.6935 -7.595,-1.4983 -10.87472,-2.4479 -31.97501,-2.9701 -43,-1.0642 -27.07427,4.6804 -50.29182,15.7969 -68.87521,32.9773 -8.39157,7.758 -22.59731,27.6355 -26.60499,37.2272 -0.77976,1.8663 -1.77821,3.3808 -2.21877,3.3656 -0.44057,-0.015 -2.60103,-2.7453 -4.80103,-6.0669 -4.78647,-7.2267 -17.77823,-19.9512 -25.73486,-25.2053 -18.61659,-12.2935 -37.95862,-17.5247 -60.68205,-16.4119 -27.22146,1.333 -52.37706,12.421 -72.94216,32.1513 -9.2491,8.8736 -14.8021,16.5965 -20.576,28.6162 -5.5284,11.5087 -7.7081,21.1869 -7.8137,34.6942 -0.044,5.6375 -0.3437,10.2363 -0.6657,10.2196 -0.322,-0.017 -1.4065,-0.5079 -2.41,-1.0914 z m -17.1755,-40.3782 c 0,-2.6415 -0.3454,-3 -2.891,-3 -3.6372,0 -5.569,2.6384 -3.6366,4.9667 0.7789,0.9386 2.4572,1.5064 3.942,1.3338 2.1394,-0.2487 2.5856,-0.8182 2.5856,-3.3005 z m 77.1193,-177.501 c 1.4563,-2.2005 4.1627,-4.9372 6.0142,-6.0815 3.2643,-2.0175 4.6845,-5.9175 2.1548,-5.9175 -0.6664,0 -3.5632,-2.5267 -6.4372,-5.615 l -5.2256,-5.6149 -4.6855,5.0865 c -2.5771,2.7976 -5.5303,5.3547 -6.5628,5.6824 -2.945,0.9347 -2.2074,4.0938 1.4893,6.3785 1.8515,1.1443 4.5579,3.881 6.0142,6.0815 1.4562,2.2006 3.0849,4.001 3.6193,4.001 0.5344,0 2.1631,-1.8004 3.6193,-4.001 z m 774.89402,-5.2845 c 1.6828,-1.0151 7.5984,-7.0821 20.9148,-21.45 1.1395,-1.2295 3.2495,-3.4795 4.6889,-5 2.78902,-2.9461 20.64852,-22.583 35.19842,-38.7012 4.8485,-5.3711 8.5724,-10.0087 8.2754,-10.3058 -0.7342,-0.7341 -10.8217,7.1101 -17.0294,13.2425 -2.7838,2.75 -7.4943,7.025 -10.4678,9.5 -2.9734,2.475 -7.9506,6.975 -11.0603,10 -3.10982,3.025 -12.94462,12.4173 -21.85522,20.8718 -15.3774,14.5902 -18.1494,18.1547 -16.8174,21.6259 0.6916,1.8023 5.3205,1.9253 8.1526,0.2168 z m -597.55322,-16.1665 c 2.65646,-3.2008 -1.24523,-8.1178 -4.71013,-5.9357 -3.46233,2.1804 -2.22883,7.3877 1.75,7.3877 0.96531,0 2.29737,-0.6534 2.96013,-1.452 z m 656.89854,-12.798 c 5.9569,-6.1875 16.4103,-17.325 23.2297,-24.75 6.8194,-7.425 15.1542,-16.425 18.5217,-20 8.4415,-8.9616 18.5296,-21.1936 17.9539,-21.7694 -0.6103,-0.6103 -15.9664,12.0589 -20.564,16.9658 -1.925,2.0546 -5.0166,4.8513 -6.8703,6.215 -2.9801,2.1924 -20.9386,18.8951 -35.5762,33.0886 -2.8361,2.75 -7.2782,6.9763 -9.8715,9.3919 -7.1772,6.6852 -7.7144,12.1081 -1.1993,12.1081 3.2086,0 4.5742,-1.0687 14.376,-11.25 z m -45.31162,-17.3444 c 0.5233,-4.8873 1.313,-7.2306 3.0784,-9.1355 2.8748,-3.102 2.8752,-3.1083 0.3604,-5.7851 -1.1077,-1.1792 -2.59,-4.1332 -3.2939,-6.5645 -1.6926,-5.8461 -3.7379,-5.6882 -5.2932,0.4085 -0.6775,2.656 -1.9444,5.6165 -2.8153,6.5788 -1.9679,2.1744 -2.0184,3.7113 -0.1457,4.4299 1.5979,0.6132 3.5481,6.6326 3.5567,10.978 0.01,3.3407 1.7455,6.963 2.9773,6.2018 0.4792,-0.2962 1.1881,-3.4966 1.5753,-7.1119 z m -184.74705,-5.6056 c 3.23333,-3.2333 -1.75288,-8.7439 -5.27039,-5.8246 -2.84101,2.3578 -1.19983,7.0246 2.47039,7.0246 0.88,0 2.14,-0.54 2.8,-1.2 z m -736.40717,-3.05 c 0.796,-1.2699 0.796,-2.2302 0,-3.5 -1.6199,-2.584 -5.0539,-2.7518 -6.3603,-0.3107 -2.4932,4.6585 3.5566,8.2832 6.3603,3.8107 z m 261.92008,-31.5547 c 1.4779,-1.5426 2.68709,-3.3642 2.68709,-4.048 0,-1.5625 -5.04494,-6.0734 -6.83981,-6.1157 -1.46353,-0.034 -7.16019,4.961 -7.16019,6.2789 0,1.461 5.45659,6.5918 7.06291,6.6413 0.8596,0.026 2.7721,-1.2139 4.25,-2.7565 z"
         id="path6667" />
      <path
         style="fill:#6066fe"
         d="m -1093.09,-620.5128 c -1.1,-0.43152 -3.6327,-0.81621 -5.6281,-0.85486 -3.5187,-0.0682 -3.6982,-0.25878 -5.9541,-6.32029 -11.5027,-30.90742 -39.2413,-54.21015 -73.4178,-61.67716 -6.1251,-1.33824 -23.9887,-1.85566 -27.75,-0.80379 l -2.75,0.76905 v -14.15438 c 0,-13.36484 0.1255,-14.2762 2.25,-16.33836 1.2375,-1.20119 6.975,-7.31262 12.75,-13.58097 5.775,-6.26834 14.325,-15.47262 19,-20.45394 9.6665,-10.29989 18.3695,-20.28632 22.4122,-25.71723 3.0651,-4.11776 2.7666,-6.49445 -0.5903,-4.69794 -3.7833,2.02479 -27.2576,23.08277 -48.1065,43.15472 -3.8562,3.7125 -7.1697,6.75 -7.3633,6.75 -0.1937,0 -0.3521,-3.95637 -0.3521,-8.79194 v -8.79193 l 4.5028,-4.95807 c 4.4502,-4.90005 6.2166,-8.07198 5.1109,-9.17768 -0.8432,-0.8432 -7.5989,4.0144 -7.6069,5.46962 0,0.6875 -0.4568,1.25 -1.0068,1.25 -0.6598,0 -1,-32.83333 -1,-96.5 v -96.5 h 241.49997 c 132.825,0 241.5,0.21344 241.5,0.47432 0,0.26088 -1.2375,1.12352 -2.75,1.91698 -1.5125,0.79346 -5.675,4.20765 -9.25,7.58707 -3.575,3.37943 -7.19298,6.67929 -8.03995,7.33302 -0.84697,0.65374 -5.79934,5.23861 -11.00527,10.18861 -5.20593,4.95 -13.73796,12.82219 -18.96006,17.49376 -19.19117,17.16797 -25.9333,24.1619 -26.57152,27.56394 -0.91992,4.90357 0.69821,7.04364 5.21251,6.89385 3.48799,-0.11573 4.74613,-1.11958 15.71502,-12.53868 27.58087,-28.71289 54.2281,-58.1365 58.10854,-64.16287 1.76127,-2.73528 1.83169,-2.75 13.15574,-2.75 6.92333,0 11.38499,0.39189 11.38499,1 0,0.55 -0.46347,1 -1.02994,1 -1.08162,0 -17.54711,14.85413 -29.48427,26.59886 -3.85781,3.79563 -10.41586,9.92269 -14.57343,13.61569 -9.05001,8.03873 -11.55139,12.04261 -10.01797,16.03545 0.9138,2.37945 1.60708,2.75 5.14508,2.75 3.89057,0 4.62319,-0.54588 15.09859,-11.25 6.05528,-6.1875 15.1058,-15.8625 20.11226,-21.5 5.00646,-5.6375 9.37438,-10.25 9.70649,-10.25 0.3321,0 3.96518,-4.04604 8.07351,-8.9912 l 7.46968,-8.9912 297.75,-0.009 297.75,-0.009 v 44.94098 c 0,28.88197 -0.3573,45.16183 -1,45.55902 -0.55,0.33992 -1,0.0415 -1,-0.6632 0,-0.76557 -0.8802,-0.40104 -2.1869,0.90568 -2.1157,2.11564 -2.1281,2.25199 -0.381,4.18254 0.9933,1.09758 2.315,1.90096 2.937,1.78529 0.8296,-0.15428 1.1995,17.06315 1.3882,64.62546 0.2054,51.73996 0,64.73968 -1,64.36001 -1.4452,-0.54688 -18.3313,8.11384 -24.2043,12.41414 -2.1709,1.58955 -4.5321,2.89008 -5.2472,2.89008 -0.7151,0 -3.938,-1.94184 -7.162,-4.31519 -26.4367,-19.46161 -66.0097,-26.77544 -100.6438,-18.60087 -4.95,1.16833 -9.43026,2.1899 -9.95612,2.27015 -0.93344,0.14245 -2.24373,-5.3321 -2.95685,-12.35409 -0.46188,-4.54804 -5.09284,-17.99518 -8.61838,-25.02565 -4.04197,-8.06027 -14.15761,-21.01969 -21.27444,-27.25526 -6.60278,-5.78517 -19.26246,-14.48015 -24.15802,-16.59232 -6.54166,-2.82238 -20.70086,-7.11006 -26.68751,-8.08149 -24.17547,-3.92285 -51.60809,2.20011 -72.13361,16.10023 l -5.78494,3.91762 -6.00605,-4.62155 c -17.69087,-13.61281 -39.34116,-20.83931 -61.92408,-20.6692 -10.90513,0.0821 -18.68579,1.48067 -32.7872,5.8933 -4.55797,1.42629 -8.39954,2.42249 -8.53684,2.21378 -9.57388,-14.55302 -14.24692,-20.50784 -22.33452,-28.46075 -21.29665,-20.94199 -51.23827,-33.83315 -81.59144,-35.12864 -7.5625,-0.32277 -13.75,-0.94727 -13.75,-1.38778 0,-0.4405 1.44826,-2.15444 3.21836,-3.80874 l 3.21837,-3.00782 -3.96837,-4.02604 c -2.1826,-2.21432 -4.54586,-4.03361 -5.25169,-4.04286 -1.57589,-0.0207 -8.21667,6.4843 -8.21667,8.04863 0,0.62267 1.43401,2.47169 3.18669,4.10893 2.57988,2.40997 2.91311,3.14993 1.75,3.8859 -0.79018,0.5 -2.66773,0.91598 -4.17234,0.9244 -3.4582,0.0194 -9.81165,1.54407 -21.32713,5.11814 -21.17547,6.57224 -37.25248,16.57576 -52.60718,32.73352 -8.41163,8.85155 -19.16337,23.33702 -19.16337,25.81817 0,0.74001 -0.29166,1.34548 -0.64812,1.34548 -0.78031,0 -2.90005,4.34946 -6.35845,13.04683 -2.47153,6.21553 -3.07652,8.30157 -6.22178,21.45317 -0.78921,3.3 -1.72983,12.1875 -2.09028,19.75 -0.4847,10.16955 -0.98891,13.75 -1.93632,13.75 -0.70453,0 -4.57289,-0.71391 -8.59634,-1.58647 -9.60978,-2.08406 -33.32754,-2.08722 -44.81538,-0.006 -30.98245,5.61307 -57.94126,21.72841 -77.10651,46.09244 -6.01319,7.64434 -12.04378,17.22211 -14.41084,22.88728 -0.83022,1.98699 -1.84095,3.61192 -2.24607,3.61093 -0.40512,-9.8e-4 -2.06955,-2.11158 -3.69875,-4.69022 -7.59529,-12.02161 -24.30428,-26.28941 -38.92321,-33.23651 -38.72025,-18.40034 -86.75239,-9.8886 -120.23999,21.30766 -10.0337,9.3471 -15.8239,17.17239 -21.9483,29.66245 -5.6087,11.43843 -7.5729,19.34997 -8.3327,33.56327 -0.5661,10.59026 -0.6863,11.06851 -2.5936,10.32029 z m -16.8429,-37.53151 c 1.228,-1.85277 1.1662,-2.39023 -0.5131,-4.46404 -1.688,-2.08461 -2.2122,-2.21955 -4.5266,-1.16508 -3.0877,1.40689 -3.5905,5.56186 -0.8674,7.16882 2.4141,1.42466 4.2615,0.94315 5.9071,-1.5397 z m 76.7813,-178.27452 c 0.8193,-1.58449 2.9684,-4.06627 4.7756,-5.51508 1.8073,-1.4488 3.8485,-3.09515 4.536,-3.65854 2.0269,-1.66105 1.4818,-2.76368 -2.751,-5.56483 -2.2005,-1.45625 -4.9372,-4.16263 -6.0816,-6.01419 -2.6565,-4.29839 -5.1814,-4.27917 -7.7409,0.0589 -1.1116,1.88397 -3.8526,4.47147 -6.0911,5.75 -2.2385,1.27853 -4.0735,3.03671 -4.0777,3.90706 0,0.87035 1.6773,2.67285 3.7367,4.00556 2.0594,1.33271 4.8348,4.1081 6.1675,6.16754 2.9005,4.48213 5.5009,4.78049 7.5265,0.86356 z m 784.06157,-13.54921 c 4.95,-5.03406 11.25,-11.63415 14,-14.66685 2.75,-3.03271 10.175,-11.11722 16.5,-17.96559 26.5246,-28.71942 34,-37.31001 34,-39.07233 0,-1.9212 -3.3403,-0.67563 -6.3269,2.35922 -1.7452,1.7734 -3.5704,3.2359 -4.0559,3.25 -0.9191,0.0267 -9.7467,7.99064 -44.47585,40.12441 -24.26117,22.44807 -28.14135,26.56003 -28.14135,29.82232 0,4.60584 0.94513,5.56446 5.35268,5.42907 3.84532,-0.11813 4.80268,-0.79389 13.14732,-9.28025 z m -605.86077,-9.07215 c 0.31706,-0.82623 0.28749,-2.65359 -0.0657,-4.06079 -0.54605,-2.1756 -1.12349,-2.51205 -3.85785,-2.24777 -2.48968,0.24063 -3.28999,0.83521 -3.54477,2.63353 -0.181,1.2775 -0.0826,2.965 0.21861,3.75 0.73775,1.92253 6.50608,1.86289 7.2497,-0.075 z m 646.47857,-1.25435 c 2.641,-1.75885 16.7553,-16.48887 35.2076,-36.74341 5.5116,-6.05 12.9807,-14.16269 16.5979,-18.02821 14.3612,-15.34718 21.4762,-24.47231 20.1305,-25.81801 -1.3399,-1.33989 -3.9885,0.59363 -16.4403,12.00186 -5.9097,5.4144 -12.4837,11.19436 -14.6089,12.84436 -3.9014,3.02902 -21.3622,19.46158 -40.564,38.1752 -9.18164,8.94824 -10.4406,10.58215 -10.4406,13.55 0,1.85614 0.54,3.9148 1.2,4.5748 1.72535,1.72535 5.88081,1.466 8.9178,-0.55659 z m -35.1178,-27.9258 c 0.39179,-5.61325 0.98692,-7.68105 2.75,-9.55501 2.54328,-2.70323 2.90039,-5.2791 0.89598,-6.46291 -1.83841,-1.08578 -3.64598,-4.70475 -3.64598,-7.29969 0,-1.17232 -0.48138,-3.03095 -1.06974,-4.13031 -1.47944,-2.76436 -3.68278,-0.81405 -4.49727,3.98079 -0.34096,2.00724 -1.47787,4.8688 -2.52646,6.35903 -2.38497,3.38946 -2.38259,4.36982 0.0181,7.42174 1.21735,1.5476 2.18126,4.91284 2.62308,9.15773 0.81155,7.79716 1.07181,8.4295 3.29558,8.00694 1.30028,-0.24707 1.76434,-1.85616 2.15676,-7.47831 z m -184.17324,-8.12265 c 0.44803,-3.16047 -1.63614,-5.35646 -4.74116,-4.99552 -1.83135,0.21288 -2.6816,0.97813 -2.91468,2.62329 -0.56628,3.9969 0.52391,5.3331 4.0722,4.99114 2.52375,-0.24322 3.33044,-0.83274 3.58364,-2.61891 z m -736.82673,-1.19496 c 1.6188,-3.02488 -0.3726,-6 -4.0162,-6 -2.3122,0 -3.0814,0.54047 -3.5764,2.51299 -0.3618,1.44131 -0.1045,3.14713 0.6033,4 1.7713,2.13423 5.7279,1.84382 6.9893,-0.51299 z m 261.5333,-31.46667 c 1.90667,-1.90666 3.46667,-3.7713 3.46667,-4.14364 0,-1.09263 -6.40587,-7.37015 -7.5,-7.34973 -1.67176,0.0312 -7.5,5.82839 -7.5,7.46004 0,1.50624 5.75927,7.41365 7.28333,7.47069 0.43084,0.0161 2.34334,-1.53069 4.25,-3.43736 z"
         id="path6665" />
    </g>
  </g>
</svg>
