<?xml version="1.0" encoding="UTF-8" standalone="no"?>
<svg
   xmlns:dc="http://purl.org/dc/elements/1.1/"
   xmlns:cc="http://creativecommons.org/ns#"
   xmlns:rdf="http://www.w3.org/1999/02/22-rdf-syntax-ns#"
   xmlns:svg="http://www.w3.org/2000/svg"
   xmlns="http://www.w3.org/2000/svg"
   width="23.765854mm"
   height="23.717922mm"
   viewBox="0 0 23.765854 23.717922"
   version="1.1"
   id="svg8">
  <defs
     id="defs2" />
  <metadata
     id="metadata5">
    <rdf:RDF>
      <cc:Work
         rdf:about="">
        <dc:format>image/svg+xml</dc:format>
        <dc:type
           rdf:resource="http://purl.org/dc/dcmitype/StillImage" />
        <dc:title></dc:title>
      </cc:Work>
    </rdf:RDF>
  </metadata>
  <g
     id="layer1"
     transform="translate(-96.57638,-134.49852)">
    <path
       style="fill:#ff5574;fill-opacity:1;stroke-width:0.264583"
       d="m 102.66852,157.7312 c -2.795646,-1.06066 -4.862696,-3.42904 -5.588776,-5.78856 -1.33277,-4.38787 0.10965,-12.38086 2.81434,-15.59519 1.512946,-1.79804 3.975036,-2.35174 6.064776,-1.36391 1.46232,0.69125 2.13782,1.34389 4.47327,4.32189 1.11491,1.42166 2.80981,3.2076 3.76644,3.96875 5.68292,4.52169 6.29643,5.31731 6.1178,7.93373 -0.15487,2.26827 -1.10933,3.48723 -3.78066,4.82832 -2.82387,1.41767 -5.41832,2.02929 -9.12164,2.15032 -2.55414,0.0835 -3.31613,0.0104 -4.74555,-0.45535 z"
       id="path1926" />
  </g>
</svg>
